<?xml version="1.0" encoding="utf-8" standalone="no"?>
<!DOCTYPE svg PUBLIC "-//W3C//DTD SVG 1.1//EN"
  "http://www.w3.org/Graphics/SVG/1.1/DTD/svg11.dtd">
<svg xmlns:xlink="http://www.w3.org/1999/xlink" width="576pt" height="432pt" viewBox="0 0 576 432" xmlns="http://www.w3.org/2000/svg" version="1.1">
 <metadata>
  <rdf:RDF xmlns:dc="http://purl.org/dc/elements/1.1/" xmlns:cc="http://creativecommons.org/ns#" xmlns:rdf="http://www.w3.org/1999/02/22-rdf-syntax-ns#">
   <cc:Work>
    <dc:type rdf:resource="http://purl.org/dc/dcmitype/StillImage"/>
    <dc:date>2025-12-16T21:39:10.939284</dc:date>
    <dc:format>image/svg+xml</dc:format>
    <dc:creator>
     <cc:Agent>
      <dc:title>Matplotlib v3.10.7, https://matplotlib.org/</dc:title>
     </cc:Agent>
    </dc:creator>
   </cc:Work>
  </rdf:RDF>
 </metadata>
 <defs>
  <style type="text/css">*{stroke-linejoin: round; stroke-linecap: butt}</style>
 </defs>
 <g id="figure_1">
  <g id="patch_1">
   <path d="M 0 432 
L 576 432 
L 576 0 
L 0 0 
z
" style="fill: #ffffff"/>
  </g>
  <g id="axes_1">
   <g id="patch_2">
    <path d="M 72 384.48 
L 518.4 384.48 
L 518.4 51.84 
L 72 51.84 
z
" style="fill: #ffffff"/>
   </g>
   <g id="PathCollection_1">
    <defs>
     <path id="C0_0_2eb5ab3220" d="M 0 3 
C 0.795609 3 1.55874 2.683901 2.12132 2.12132 
C 2.683901 1.55874 3 0.795609 3 -0 
C 3 -0.795609 2.683901 -1.55874 2.12132 -2.12132 
C 1.55874 -2.683901 0.795609 -3 0 -3 
C -0.795609 -3 -1.55874 -2.683901 -2.12132 -2.12132 
C -2.683901 -1.55874 -3 -0.795609 -3 0 
C -3 0.795609 -2.683901 1.55874 -2.12132 2.12132 
C -1.55874 2.683901 -0.795609 3 0 3 
z
"/>
    </defs>
    <g clip-path="url(#pec3b67e10d)">
     <use xlink:href="#C0_0_2eb5ab3220" x="92.290909" y="68.097827" style="fill: #1f77b4; stroke: #ffffff; stroke-width: 0.48"/>
    </g>
    <g clip-path="url(#pec3b67e10d)">
     <use xlink:href="#C0_0_2eb5ab3220" x="92.290909" y="93.605278" style="fill: #ff7f0e; stroke: #ffffff; stroke-width: 0.48"/>
    </g>
    <g clip-path="url(#pec3b67e10d)">
     <use xlink:href="#C0_0_2eb5ab3220" x="190.810049" y="120.978675" style="fill: #1f77b4; stroke: #ffffff; stroke-width: 0.48"/>
    </g>
    <g clip-path="url(#pec3b67e10d)">
     <use xlink:href="#C0_0_2eb5ab3220" x="190.810049" y="177.874758" style="fill: #ff7f0e; stroke: #ffffff; stroke-width: 0.48"/>
    </g>
    <g clip-path="url(#pec3b67e10d)">
     <use xlink:href="#C0_0_2eb5ab3220" x="247.090607" y="129.03128" style="fill: #1f77b4; stroke: #ffffff; stroke-width: 0.48"/>
    </g>
    <g clip-path="url(#pec3b67e10d)">
     <use xlink:href="#C0_0_2eb5ab3220" x="247.090607" y="199.450424" style="fill: #ff7f0e; stroke: #ffffff; stroke-width: 0.48"/>
    </g>
    <g clip-path="url(#pec3b67e10d)">
     <use xlink:href="#C0_0_2eb5ab3220" x="301.770147" y="106.84408" style="fill: #1f77b4; stroke: #ffffff; stroke-width: 0.48"/>
    </g>
    <g clip-path="url(#pec3b67e10d)">
     <use xlink:href="#C0_0_2eb5ab3220" x="301.770147" y="209.462707" style="fill: #ff7f0e; stroke: #ffffff; stroke-width: 0.48"/>
    </g>
    <g clip-path="url(#pec3b67e10d)">
     <use xlink:href="#C0_0_2eb5ab3220" x="301.770147" y="273.03239" style="fill: #2ca02c; stroke: #ffffff; stroke-width: 0.48"/>
    </g>
    <g clip-path="url(#pec3b67e10d)">
     <use xlink:href="#C0_0_2eb5ab3220" x="340.826363" y="71.928603" style="fill: #1f77b4; stroke: #ffffff; stroke-width: 0.48"/>
    </g>
    <g clip-path="url(#pec3b67e10d)">
     <use xlink:href="#C0_0_2eb5ab3220" x="340.826363" y="212.742055" style="fill: #ff7f0e; stroke: #ffffff; stroke-width: 0.48"/>
    </g>
    <g clip-path="url(#pec3b67e10d)">
     <use xlink:href="#C0_0_2eb5ab3220" x="340.826363" y="286.30384" style="fill: #2ca02c; stroke: #ffffff; stroke-width: 0.48"/>
    </g>
    <g clip-path="url(#pec3b67e10d)">
     <use xlink:href="#C0_0_2eb5ab3220" x="375.564682" y="208.027152" style="fill: #ff7f0e; stroke: #ffffff; stroke-width: 0.48"/>
    </g>
    <g clip-path="url(#pec3b67e10d)">
     <use xlink:href="#C0_0_2eb5ab3220" x="375.564682" y="296.537602" style="fill: #2ca02c; stroke: #ffffff; stroke-width: 0.48"/>
    </g>
    <g clip-path="url(#pec3b67e10d)">
     <use xlink:href="#C0_0_2eb5ab3220" x="375.564682" y="344.709097" style="fill: #d62728; stroke: #ffffff; stroke-width: 0.48"/>
    </g>
    <g clip-path="url(#pec3b67e10d)">
     <use xlink:href="#C0_0_2eb5ab3220" x="404.310069" y="179.713747" style="fill: #ff7f0e; stroke: #ffffff; stroke-width: 0.48"/>
    </g>
    <g clip-path="url(#pec3b67e10d)">
     <use xlink:href="#C0_0_2eb5ab3220" x="404.310069" y="285.797274" style="fill: #2ca02c; stroke: #ffffff; stroke-width: 0.48"/>
    </g>
    <g clip-path="url(#pec3b67e10d)">
     <use xlink:href="#C0_0_2eb5ab3220" x="404.310069" y="362.843136" style="fill: #d62728; stroke: #ffffff; stroke-width: 0.48"/>
    </g>
    <g clip-path="url(#pec3b67e10d)">
     <use xlink:href="#C0_0_2eb5ab3220" x="433.037786" y="130.291551" style="fill: #ff7f0e; stroke: #ffffff; stroke-width: 0.48"/>
    </g>
    <g clip-path="url(#pec3b67e10d)">
     <use xlink:href="#C0_0_2eb5ab3220" x="433.037786" y="276.274092" style="fill: #2ca02c; stroke: #ffffff; stroke-width: 0.48"/>
    </g>
    <g clip-path="url(#pec3b67e10d)">
     <use xlink:href="#C0_0_2eb5ab3220" x="433.037786" y="369.36" style="fill: #d62728; stroke: #ffffff; stroke-width: 0.48"/>
    </g>
    <g clip-path="url(#pec3b67e10d)">
     <use xlink:href="#C0_0_2eb5ab3220" x="456.60711" y="99.290124" style="fill: #ff7f0e; stroke: #ffffff; stroke-width: 0.48"/>
    </g>
    <g clip-path="url(#pec3b67e10d)">
     <use xlink:href="#C0_0_2eb5ab3220" x="456.60711" y="264.13803" style="fill: #2ca02c; stroke: #ffffff; stroke-width: 0.48"/>
    </g>
    <g clip-path="url(#pec3b67e10d)">
     <use xlink:href="#C0_0_2eb5ab3220" x="456.60711" y="366.384838" style="fill: #d62728; stroke: #ffffff; stroke-width: 0.48"/>
    </g>
    <g clip-path="url(#pec3b67e10d)">
     <use xlink:href="#C0_0_2eb5ab3220" x="498.109091" y="351.19888" style="fill: #d62728; stroke: #ffffff; stroke-width: 0.48"/>
    </g>
   </g>
   <g id="PathCollection_2">
    <path d="M 215.543862 133.758312 
L 225.543862 123.758312 
M 215.543862 123.758312 
L 225.543862 133.758312 
" clip-path="url(#pec3b67e10d)" style="fill: #1f77b4; stroke: #1f77b4; stroke-width: 0.8"/>
    <path d="M 279.603205 221.917162 
L 289.603205 211.917162 
M 279.603205 211.917162 
L 289.603205 221.917162 
" clip-path="url(#pec3b67e10d)" style="fill: #ff7f0e; stroke: #ff7f0e; stroke-width: 0.8"/>
    <path d="M 366.689342 297.379874 
L 376.689342 287.379874 
M 366.689342 287.379874 
L 376.689342 297.379874 
" clip-path="url(#pec3b67e10d)" style="fill: #2ca02c; stroke: #2ca02c; stroke-width: 0.8"/>
    <path d="M 435.772485 374.212352 
L 445.772485 364.212352 
M 435.772485 364.212352 
L 445.772485 374.212352 
" clip-path="url(#pec3b67e10d)" style="fill: #d62728; stroke: #d62728; stroke-width: 0.8"/>
   </g>
   <g id="matplotlib.axis_1">
    <g id="xtick_1">
     <g id="line2d_1">
      <path d="M 100.155382 384.48 
L 100.155382 51.84 
" clip-path="url(#pec3b67e10d)" style="fill: none; stroke: #b0b0b0; stroke-opacity: 0.2; stroke-width: 0.8; stroke-linecap: square"/>
     </g>
     <g id="line2d_2">
      <defs>
       <path id="mb940e37318" d="M 0 0 
L 0 3.5 
" style="stroke: #000000; stroke-width: 0.8"/>
      </defs>
      <g>
       <use xlink:href="#mb940e37318" x="100.155382" y="384.48" style="stroke: #000000; stroke-width: 0.8"/>
      </g>
     </g>
     <g id="text_1">
      <!-- $\mathdefault{2^{20}}$ -->
      <g transform="translate(92.305382 399.078438) scale(0.1 -0.1)">
       <defs>
        <path id="DejaVuSans-32" d="M 1228 531 
L 3431 531 
L 3431 0 
L 469 0 
L 469 531 
Q 828 903 1448 1529 
Q 2069 2156 2228 2338 
Q 2531 2678 2651 2914 
Q 2772 3150 2772 3378 
Q 2772 3750 2511 3984 
Q 2250 4219 1831 4219 
Q 1534 4219 1204 4116 
Q 875 4013 500 3803 
L 500 4441 
Q 881 4594 1212 4672 
Q 1544 4750 1819 4750 
Q 2544 4750 2975 4387 
Q 3406 4025 3406 3419 
Q 3406 3131 3298 2873 
Q 3191 2616 2906 2266 
Q 2828 2175 2409 1742 
Q 1991 1309 1228 531 
z
" transform="scale(0.015625)"/>
        <path id="DejaVuSans-30" d="M 2034 4250 
Q 1547 4250 1301 3770 
Q 1056 3291 1056 2328 
Q 1056 1369 1301 889 
Q 1547 409 2034 409 
Q 2525 409 2770 889 
Q 3016 1369 3016 2328 
Q 3016 3291 2770 3770 
Q 2525 4250 2034 4250 
z
M 2034 4750 
Q 2819 4750 3233 4129 
Q 3647 3509 3647 2328 
Q 3647 1150 3233 529 
Q 2819 -91 2034 -91 
Q 1250 -91 836 529 
Q 422 1150 422 2328 
Q 422 3509 836 4129 
Q 1250 4750 2034 4750 
z
" transform="scale(0.015625)"/>
       </defs>
       <use xlink:href="#DejaVuSans-32" transform="translate(0 0.765625)"/>
       <use xlink:href="#DejaVuSans-32" transform="translate(64.580078 39.046875) scale(0.7)"/>
       <use xlink:href="#DejaVuSans-30" transform="translate(109.116211 39.046875) scale(0.7)"/>
      </g>
     </g>
    </g>
    <g id="xtick_2">
     <g id="line2d_3">
      <path d="M 151.774653 384.48 
L 151.774653 51.84 
" clip-path="url(#pec3b67e10d)" style="fill: none; stroke: #b0b0b0; stroke-opacity: 0.2; stroke-width: 0.8; stroke-linecap: square"/>
     </g>
     <g id="line2d_4">
      <g>
       <use xlink:href="#mb940e37318" x="151.774653" y="384.48" style="stroke: #000000; stroke-width: 0.8"/>
      </g>
     </g>
     <g id="text_2">
      <!-- $\mathdefault{2^{21}}$ -->
      <g transform="translate(143.924653 399.078438) scale(0.1 -0.1)">
       <defs>
        <path id="DejaVuSans-31" d="M 794 531 
L 1825 531 
L 1825 4091 
L 703 3866 
L 703 4441 
L 1819 4666 
L 2450 4666 
L 2450 531 
L 3481 531 
L 3481 0 
L 794 0 
L 794 531 
z
" transform="scale(0.015625)"/>
       </defs>
       <use xlink:href="#DejaVuSans-32" transform="translate(0 0.765625)"/>
       <use xlink:href="#DejaVuSans-32" transform="translate(64.580078 39.046875) scale(0.7)"/>
       <use xlink:href="#DejaVuSans-31" transform="translate(109.116211 39.046875) scale(0.7)"/>
      </g>
     </g>
    </g>
    <g id="xtick_3">
     <g id="line2d_5">
      <path d="M 203.393924 384.48 
L 203.393924 51.84 
" clip-path="url(#pec3b67e10d)" style="fill: none; stroke: #b0b0b0; stroke-opacity: 0.2; stroke-width: 0.8; stroke-linecap: square"/>
     </g>
     <g id="line2d_6">
      <g>
       <use xlink:href="#mb940e37318" x="203.393924" y="384.48" style="stroke: #000000; stroke-width: 0.8"/>
      </g>
     </g>
     <g id="text_3">
      <!-- $\mathdefault{2^{22}}$ -->
      <g transform="translate(195.543924 399.078438) scale(0.1 -0.1)">
       <use xlink:href="#DejaVuSans-32" transform="translate(0 0.765625)"/>
       <use xlink:href="#DejaVuSans-32" transform="translate(64.580078 39.046875) scale(0.7)"/>
       <use xlink:href="#DejaVuSans-32" transform="translate(109.116211 39.046875) scale(0.7)"/>
      </g>
     </g>
    </g>
    <g id="xtick_4">
     <g id="line2d_7">
      <path d="M 255.013196 384.48 
L 255.013196 51.84 
" clip-path="url(#pec3b67e10d)" style="fill: none; stroke: #b0b0b0; stroke-opacity: 0.2; stroke-width: 0.8; stroke-linecap: square"/>
     </g>
     <g id="line2d_8">
      <g>
       <use xlink:href="#mb940e37318" x="255.013196" y="384.48" style="stroke: #000000; stroke-width: 0.8"/>
      </g>
     </g>
     <g id="text_4">
      <!-- $\mathdefault{2^{23}}$ -->
      <g transform="translate(247.163196 399.078438) scale(0.1 -0.1)">
       <defs>
        <path id="DejaVuSans-33" d="M 2597 2516 
Q 3050 2419 3304 2112 
Q 3559 1806 3559 1356 
Q 3559 666 3084 287 
Q 2609 -91 1734 -91 
Q 1441 -91 1130 -33 
Q 819 25 488 141 
L 488 750 
Q 750 597 1062 519 
Q 1375 441 1716 441 
Q 2309 441 2620 675 
Q 2931 909 2931 1356 
Q 2931 1769 2642 2001 
Q 2353 2234 1838 2234 
L 1294 2234 
L 1294 2753 
L 1863 2753 
Q 2328 2753 2575 2939 
Q 2822 3125 2822 3475 
Q 2822 3834 2567 4026 
Q 2313 4219 1838 4219 
Q 1578 4219 1281 4162 
Q 984 4106 628 3988 
L 628 4550 
Q 988 4650 1302 4700 
Q 1616 4750 1894 4750 
Q 2613 4750 3031 4423 
Q 3450 4097 3450 3541 
Q 3450 3153 3228 2886 
Q 3006 2619 2597 2516 
z
" transform="scale(0.015625)"/>
       </defs>
       <use xlink:href="#DejaVuSans-32" transform="translate(0 0.765625)"/>
       <use xlink:href="#DejaVuSans-32" transform="translate(64.580078 39.046875) scale(0.7)"/>
       <use xlink:href="#DejaVuSans-33" transform="translate(109.116211 39.046875) scale(0.7)"/>
      </g>
     </g>
    </g>
    <g id="xtick_5">
     <g id="line2d_9">
      <path d="M 306.632467 384.48 
L 306.632467 51.84 
" clip-path="url(#pec3b67e10d)" style="fill: none; stroke: #b0b0b0; stroke-opacity: 0.2; stroke-width: 0.8; stroke-linecap: square"/>
     </g>
     <g id="line2d_10">
      <g>
       <use xlink:href="#mb940e37318" x="306.632467" y="384.48" style="stroke: #000000; stroke-width: 0.8"/>
      </g>
     </g>
     <g id="text_5">
      <!-- $\mathdefault{2^{24}}$ -->
      <g transform="translate(298.782467 399.078438) scale(0.1 -0.1)">
       <defs>
        <path id="DejaVuSans-34" d="M 2419 4116 
L 825 1625 
L 2419 1625 
L 2419 4116 
z
M 2253 4666 
L 3047 4666 
L 3047 1625 
L 3713 1625 
L 3713 1100 
L 3047 1100 
L 3047 0 
L 2419 0 
L 2419 1100 
L 313 1100 
L 313 1709 
L 2253 4666 
z
" transform="scale(0.015625)"/>
       </defs>
       <use xlink:href="#DejaVuSans-32" transform="translate(0 0.765625)"/>
       <use xlink:href="#DejaVuSans-32" transform="translate(64.580078 39.046875) scale(0.7)"/>
       <use xlink:href="#DejaVuSans-34" transform="translate(109.116211 39.046875) scale(0.7)"/>
      </g>
     </g>
    </g>
    <g id="xtick_6">
     <g id="line2d_11">
      <path d="M 358.251738 384.48 
L 358.251738 51.84 
" clip-path="url(#pec3b67e10d)" style="fill: none; stroke: #b0b0b0; stroke-opacity: 0.2; stroke-width: 0.8; stroke-linecap: square"/>
     </g>
     <g id="line2d_12">
      <g>
       <use xlink:href="#mb940e37318" x="358.251738" y="384.48" style="stroke: #000000; stroke-width: 0.8"/>
      </g>
     </g>
     <g id="text_6">
      <!-- $\mathdefault{2^{25}}$ -->
      <g transform="translate(350.401738 399.078438) scale(0.1 -0.1)">
       <defs>
        <path id="DejaVuSans-35" d="M 691 4666 
L 3169 4666 
L 3169 4134 
L 1269 4134 
L 1269 2991 
Q 1406 3038 1543 3061 
Q 1681 3084 1819 3084 
Q 2600 3084 3056 2656 
Q 3513 2228 3513 1497 
Q 3513 744 3044 326 
Q 2575 -91 1722 -91 
Q 1428 -91 1123 -41 
Q 819 9 494 109 
L 494 744 
Q 775 591 1075 516 
Q 1375 441 1709 441 
Q 2250 441 2565 725 
Q 2881 1009 2881 1497 
Q 2881 1984 2565 2268 
Q 2250 2553 1709 2553 
Q 1456 2553 1204 2497 
Q 953 2441 691 2322 
L 691 4666 
z
" transform="scale(0.015625)"/>
       </defs>
       <use xlink:href="#DejaVuSans-32" transform="translate(0 0.765625)"/>
       <use xlink:href="#DejaVuSans-32" transform="translate(64.580078 39.046875) scale(0.7)"/>
       <use xlink:href="#DejaVuSans-35" transform="translate(109.116211 39.046875) scale(0.7)"/>
      </g>
     </g>
    </g>
    <g id="xtick_7">
     <g id="line2d_13">
      <path d="M 409.87101 384.48 
L 409.87101 51.84 
" clip-path="url(#pec3b67e10d)" style="fill: none; stroke: #b0b0b0; stroke-opacity: 0.2; stroke-width: 0.8; stroke-linecap: square"/>
     </g>
     <g id="line2d_14">
      <g>
       <use xlink:href="#mb940e37318" x="409.87101" y="384.48" style="stroke: #000000; stroke-width: 0.8"/>
      </g>
     </g>
     <g id="text_7">
      <!-- $\mathdefault{2^{26}}$ -->
      <g transform="translate(402.02101 399.078438) scale(0.1 -0.1)">
       <defs>
        <path id="DejaVuSans-36" d="M 2113 2584 
Q 1688 2584 1439 2293 
Q 1191 2003 1191 1497 
Q 1191 994 1439 701 
Q 1688 409 2113 409 
Q 2538 409 2786 701 
Q 3034 994 3034 1497 
Q 3034 2003 2786 2293 
Q 2538 2584 2113 2584 
z
M 3366 4563 
L 3366 3988 
Q 3128 4100 2886 4159 
Q 2644 4219 2406 4219 
Q 1781 4219 1451 3797 
Q 1122 3375 1075 2522 
Q 1259 2794 1537 2939 
Q 1816 3084 2150 3084 
Q 2853 3084 3261 2657 
Q 3669 2231 3669 1497 
Q 3669 778 3244 343 
Q 2819 -91 2113 -91 
Q 1303 -91 875 529 
Q 447 1150 447 2328 
Q 447 3434 972 4092 
Q 1497 4750 2381 4750 
Q 2619 4750 2861 4703 
Q 3103 4656 3366 4563 
z
" transform="scale(0.015625)"/>
       </defs>
       <use xlink:href="#DejaVuSans-32" transform="translate(0 0.765625)"/>
       <use xlink:href="#DejaVuSans-32" transform="translate(64.580078 39.046875) scale(0.7)"/>
       <use xlink:href="#DejaVuSans-36" transform="translate(109.116211 39.046875) scale(0.7)"/>
      </g>
     </g>
    </g>
    <g id="xtick_8">
     <g id="line2d_15">
      <path d="M 461.490281 384.48 
L 461.490281 51.84 
" clip-path="url(#pec3b67e10d)" style="fill: none; stroke: #b0b0b0; stroke-opacity: 0.2; stroke-width: 0.8; stroke-linecap: square"/>
     </g>
     <g id="line2d_16">
      <g>
       <use xlink:href="#mb940e37318" x="461.490281" y="384.48" style="stroke: #000000; stroke-width: 0.8"/>
      </g>
     </g>
     <g id="text_8">
      <!-- $\mathdefault{2^{27}}$ -->
      <g transform="translate(453.640281 399.078438) scale(0.1 -0.1)">
       <defs>
        <path id="DejaVuSans-37" d="M 525 4666 
L 3525 4666 
L 3525 4397 
L 1831 0 
L 1172 0 
L 2766 4134 
L 525 4134 
L 525 4666 
z
" transform="scale(0.015625)"/>
       </defs>
       <use xlink:href="#DejaVuSans-32" transform="translate(0 0.765625)"/>
       <use xlink:href="#DejaVuSans-32" transform="translate(64.580078 39.046875) scale(0.7)"/>
       <use xlink:href="#DejaVuSans-37" transform="translate(109.116211 39.046875) scale(0.7)"/>
      </g>
     </g>
    </g>
    <g id="xtick_9">
     <g id="line2d_17">
      <path d="M 513.109552 384.48 
L 513.109552 51.84 
" clip-path="url(#pec3b67e10d)" style="fill: none; stroke: #b0b0b0; stroke-opacity: 0.2; stroke-width: 0.8; stroke-linecap: square"/>
     </g>
     <g id="line2d_18">
      <g>
       <use xlink:href="#mb940e37318" x="513.109552" y="384.48" style="stroke: #000000; stroke-width: 0.8"/>
      </g>
     </g>
     <g id="text_9">
      <!-- $\mathdefault{2^{28}}$ -->
      <g transform="translate(505.259552 399.078438) scale(0.1 -0.1)">
       <defs>
        <path id="DejaVuSans-38" d="M 2034 2216 
Q 1584 2216 1326 1975 
Q 1069 1734 1069 1313 
Q 1069 891 1326 650 
Q 1584 409 2034 409 
Q 2484 409 2743 651 
Q 3003 894 3003 1313 
Q 3003 1734 2745 1975 
Q 2488 2216 2034 2216 
z
M 1403 2484 
Q 997 2584 770 2862 
Q 544 3141 544 3541 
Q 544 4100 942 4425 
Q 1341 4750 2034 4750 
Q 2731 4750 3128 4425 
Q 3525 4100 3525 3541 
Q 3525 3141 3298 2862 
Q 3072 2584 2669 2484 
Q 3125 2378 3379 2068 
Q 3634 1759 3634 1313 
Q 3634 634 3220 271 
Q 2806 -91 2034 -91 
Q 1263 -91 848 271 
Q 434 634 434 1313 
Q 434 1759 690 2068 
Q 947 2378 1403 2484 
z
M 1172 3481 
Q 1172 3119 1398 2916 
Q 1625 2713 2034 2713 
Q 2441 2713 2670 2916 
Q 2900 3119 2900 3481 
Q 2900 3844 2670 4047 
Q 2441 4250 2034 4250 
Q 1625 4250 1398 4047 
Q 1172 3844 1172 3481 
z
" transform="scale(0.015625)"/>
       </defs>
       <use xlink:href="#DejaVuSans-32" transform="translate(0 0.765625)"/>
       <use xlink:href="#DejaVuSans-32" transform="translate(64.580078 39.046875) scale(0.7)"/>
       <use xlink:href="#DejaVuSans-38" transform="translate(109.116211 39.046875) scale(0.7)"/>
      </g>
     </g>
    </g>
    <g id="text_10">
     <!-- Parameters -->
     <g transform="translate(266.582812 412.756563) scale(0.1 -0.1)">
      <defs>
       <path id="DejaVuSans-50" d="M 1259 4147 
L 1259 2394 
L 2053 2394 
Q 2494 2394 2734 2622 
Q 2975 2850 2975 3272 
Q 2975 3691 2734 3919 
Q 2494 4147 2053 4147 
L 1259 4147 
z
M 628 4666 
L 2053 4666 
Q 2838 4666 3239 4311 
Q 3641 3956 3641 3272 
Q 3641 2581 3239 2228 
Q 2838 1875 2053 1875 
L 1259 1875 
L 1259 0 
L 628 0 
L 628 4666 
z
" transform="scale(0.015625)"/>
       <path id="DejaVuSans-61" d="M 2194 1759 
Q 1497 1759 1228 1600 
Q 959 1441 959 1056 
Q 959 750 1161 570 
Q 1363 391 1709 391 
Q 2188 391 2477 730 
Q 2766 1069 2766 1631 
L 2766 1759 
L 2194 1759 
z
M 3341 1997 
L 3341 0 
L 2766 0 
L 2766 531 
Q 2569 213 2275 61 
Q 1981 -91 1556 -91 
Q 1019 -91 701 211 
Q 384 513 384 1019 
Q 384 1609 779 1909 
Q 1175 2209 1959 2209 
L 2766 2209 
L 2766 2266 
Q 2766 2663 2505 2880 
Q 2244 3097 1772 3097 
Q 1472 3097 1187 3025 
Q 903 2953 641 2809 
L 641 3341 
Q 956 3463 1253 3523 
Q 1550 3584 1831 3584 
Q 2591 3584 2966 3190 
Q 3341 2797 3341 1997 
z
" transform="scale(0.015625)"/>
       <path id="DejaVuSans-72" d="M 2631 2963 
Q 2534 3019 2420 3045 
Q 2306 3072 2169 3072 
Q 1681 3072 1420 2755 
Q 1159 2438 1159 1844 
L 1159 0 
L 581 0 
L 581 3500 
L 1159 3500 
L 1159 2956 
Q 1341 3275 1631 3429 
Q 1922 3584 2338 3584 
Q 2397 3584 2469 3576 
Q 2541 3569 2628 3553 
L 2631 2963 
z
" transform="scale(0.015625)"/>
       <path id="DejaVuSans-6d" d="M 3328 2828 
Q 3544 3216 3844 3400 
Q 4144 3584 4550 3584 
Q 5097 3584 5394 3201 
Q 5691 2819 5691 2113 
L 5691 0 
L 5113 0 
L 5113 2094 
Q 5113 2597 4934 2840 
Q 4756 3084 4391 3084 
Q 3944 3084 3684 2787 
Q 3425 2491 3425 1978 
L 3425 0 
L 2847 0 
L 2847 2094 
Q 2847 2600 2669 2842 
Q 2491 3084 2119 3084 
Q 1678 3084 1418 2786 
Q 1159 2488 1159 1978 
L 1159 0 
L 581 0 
L 581 3500 
L 1159 3500 
L 1159 2956 
Q 1356 3278 1631 3431 
Q 1906 3584 2284 3584 
Q 2666 3584 2933 3390 
Q 3200 3197 3328 2828 
z
" transform="scale(0.015625)"/>
       <path id="DejaVuSans-65" d="M 3597 1894 
L 3597 1613 
L 953 1613 
Q 991 1019 1311 708 
Q 1631 397 2203 397 
Q 2534 397 2845 478 
Q 3156 559 3463 722 
L 3463 178 
Q 3153 47 2828 -22 
Q 2503 -91 2169 -91 
Q 1331 -91 842 396 
Q 353 884 353 1716 
Q 353 2575 817 3079 
Q 1281 3584 2069 3584 
Q 2775 3584 3186 3129 
Q 3597 2675 3597 1894 
z
M 3022 2063 
Q 3016 2534 2758 2815 
Q 2500 3097 2075 3097 
Q 1594 3097 1305 2825 
Q 1016 2553 972 2059 
L 3022 2063 
z
" transform="scale(0.015625)"/>
       <path id="DejaVuSans-74" d="M 1172 4494 
L 1172 3500 
L 2356 3500 
L 2356 3053 
L 1172 3053 
L 1172 1153 
Q 1172 725 1289 603 
Q 1406 481 1766 481 
L 2356 481 
L 2356 0 
L 1766 0 
Q 1100 0 847 248 
Q 594 497 594 1153 
L 594 3053 
L 172 3053 
L 172 3500 
L 594 3500 
L 594 4494 
L 1172 4494 
z
" transform="scale(0.015625)"/>
       <path id="DejaVuSans-73" d="M 2834 3397 
L 2834 2853 
Q 2591 2978 2328 3040 
Q 2066 3103 1784 3103 
Q 1356 3103 1142 2972 
Q 928 2841 928 2578 
Q 928 2378 1081 2264 
Q 1234 2150 1697 2047 
L 1894 2003 
Q 2506 1872 2764 1633 
Q 3022 1394 3022 966 
Q 3022 478 2636 193 
Q 2250 -91 1575 -91 
Q 1294 -91 989 -36 
Q 684 19 347 128 
L 347 722 
Q 666 556 975 473 
Q 1284 391 1588 391 
Q 1994 391 2212 530 
Q 2431 669 2431 922 
Q 2431 1156 2273 1281 
Q 2116 1406 1581 1522 
L 1381 1569 
Q 847 1681 609 1914 
Q 372 2147 372 2553 
Q 372 3047 722 3315 
Q 1072 3584 1716 3584 
Q 2034 3584 2315 3537 
Q 2597 3491 2834 3397 
z
" transform="scale(0.015625)"/>
      </defs>
      <use xlink:href="#DejaVuSans-50"/>
      <use xlink:href="#DejaVuSans-61" transform="translate(55.802734 0)"/>
      <use xlink:href="#DejaVuSans-72" transform="translate(117.082031 0)"/>
      <use xlink:href="#DejaVuSans-61" transform="translate(158.195312 0)"/>
      <use xlink:href="#DejaVuSans-6d" transform="translate(219.474609 0)"/>
      <use xlink:href="#DejaVuSans-65" transform="translate(316.886719 0)"/>
      <use xlink:href="#DejaVuSans-74" transform="translate(378.410156 0)"/>
      <use xlink:href="#DejaVuSans-65" transform="translate(417.619141 0)"/>
      <use xlink:href="#DejaVuSans-72" transform="translate(479.142578 0)"/>
      <use xlink:href="#DejaVuSans-73" transform="translate(520.255859 0)"/>
     </g>
    </g>
   </g>
   <g id="matplotlib.axis_2">
    <g id="ytick_1">
     <g id="line2d_19">
      <path d="M 72 320.881816 
L 518.4 320.881816 
" clip-path="url(#pec3b67e10d)" style="fill: none; stroke: #b0b0b0; stroke-opacity: 0.2; stroke-width: 0.8; stroke-linecap: square"/>
     </g>
     <g id="line2d_20">
      <defs>
       <path id="mde07825baa" d="M 0 0 
L -3.5 0 
" style="stroke: #000000; stroke-width: 0.8"/>
      </defs>
      <g>
       <use xlink:href="#mde07825baa" x="72" y="320.881816" style="stroke: #000000; stroke-width: 0.8"/>
      </g>
     </g>
     <g id="text_11">
      <!-- 3.4 -->
      <g transform="translate(49.096875 324.681035) scale(0.1 -0.1)">
       <defs>
        <path id="DejaVuSans-2e" d="M 684 794 
L 1344 794 
L 1344 0 
L 684 0 
L 684 794 
z
" transform="scale(0.015625)"/>
       </defs>
       <use xlink:href="#DejaVuSans-33"/>
       <use xlink:href="#DejaVuSans-2e" transform="translate(63.623047 0)"/>
       <use xlink:href="#DejaVuSans-34" transform="translate(95.410156 0)"/>
      </g>
     </g>
    </g>
    <g id="ytick_2">
     <g id="line2d_21">
      <path d="M 72 250.292097 
L 518.4 250.292097 
" clip-path="url(#pec3b67e10d)" style="fill: none; stroke: #b0b0b0; stroke-opacity: 0.2; stroke-width: 0.8; stroke-linecap: square"/>
     </g>
     <g id="line2d_22">
      <g>
       <use xlink:href="#mde07825baa" x="72" y="250.292097" style="stroke: #000000; stroke-width: 0.8"/>
      </g>
     </g>
     <g id="text_12">
      <!-- 3.6 -->
      <g transform="translate(49.096875 254.091315) scale(0.1 -0.1)">
       <use xlink:href="#DejaVuSans-33"/>
       <use xlink:href="#DejaVuSans-2e" transform="translate(63.623047 0)"/>
       <use xlink:href="#DejaVuSans-36" transform="translate(95.410156 0)"/>
      </g>
     </g>
    </g>
    <g id="ytick_3">
     <g id="line2d_23">
      <path d="M 72 179.702377 
L 518.4 179.702377 
" clip-path="url(#pec3b67e10d)" style="fill: none; stroke: #b0b0b0; stroke-opacity: 0.2; stroke-width: 0.8; stroke-linecap: square"/>
     </g>
     <g id="line2d_24">
      <g>
       <use xlink:href="#mde07825baa" x="72" y="179.702377" style="stroke: #000000; stroke-width: 0.8"/>
      </g>
     </g>
     <g id="text_13">
      <!-- 3.8 -->
      <g transform="translate(49.096875 183.501596) scale(0.1 -0.1)">
       <use xlink:href="#DejaVuSans-33"/>
       <use xlink:href="#DejaVuSans-2e" transform="translate(63.623047 0)"/>
       <use xlink:href="#DejaVuSans-38" transform="translate(95.410156 0)"/>
      </g>
     </g>
    </g>
    <g id="ytick_4">
     <g id="line2d_25">
      <path d="M 72 109.112657 
L 518.4 109.112657 
" clip-path="url(#pec3b67e10d)" style="fill: none; stroke: #b0b0b0; stroke-opacity: 0.2; stroke-width: 0.8; stroke-linecap: square"/>
     </g>
     <g id="line2d_26">
      <g>
       <use xlink:href="#mde07825baa" x="72" y="109.112657" style="stroke: #000000; stroke-width: 0.8"/>
      </g>
     </g>
     <g id="text_14">
      <!-- 4.0 -->
      <g transform="translate(49.096875 112.911876) scale(0.1 -0.1)">
       <use xlink:href="#DejaVuSans-34"/>
       <use xlink:href="#DejaVuSans-2e" transform="translate(63.623047 0)"/>
       <use xlink:href="#DejaVuSans-30" transform="translate(95.410156 0)"/>
      </g>
     </g>
    </g>
    <g id="text_15">
     <!-- Validation Loss -->
     <g transform="translate(43.017187 255.406875) rotate(-90) scale(0.1 -0.1)">
      <defs>
       <path id="DejaVuSans-56" d="M 1831 0 
L 50 4666 
L 709 4666 
L 2188 738 
L 3669 4666 
L 4325 4666 
L 2547 0 
L 1831 0 
z
" transform="scale(0.015625)"/>
       <path id="DejaVuSans-6c" d="M 603 4863 
L 1178 4863 
L 1178 0 
L 603 0 
L 603 4863 
z
" transform="scale(0.015625)"/>
       <path id="DejaVuSans-69" d="M 603 3500 
L 1178 3500 
L 1178 0 
L 603 0 
L 603 3500 
z
M 603 4863 
L 1178 4863 
L 1178 4134 
L 603 4134 
L 603 4863 
z
" transform="scale(0.015625)"/>
       <path id="DejaVuSans-64" d="M 2906 2969 
L 2906 4863 
L 3481 4863 
L 3481 0 
L 2906 0 
L 2906 525 
Q 2725 213 2448 61 
Q 2172 -91 1784 -91 
Q 1150 -91 751 415 
Q 353 922 353 1747 
Q 353 2572 751 3078 
Q 1150 3584 1784 3584 
Q 2172 3584 2448 3432 
Q 2725 3281 2906 2969 
z
M 947 1747 
Q 947 1113 1208 752 
Q 1469 391 1925 391 
Q 2381 391 2643 752 
Q 2906 1113 2906 1747 
Q 2906 2381 2643 2742 
Q 2381 3103 1925 3103 
Q 1469 3103 1208 2742 
Q 947 2381 947 1747 
z
" transform="scale(0.015625)"/>
       <path id="DejaVuSans-6f" d="M 1959 3097 
Q 1497 3097 1228 2736 
Q 959 2375 959 1747 
Q 959 1119 1226 758 
Q 1494 397 1959 397 
Q 2419 397 2687 759 
Q 2956 1122 2956 1747 
Q 2956 2369 2687 2733 
Q 2419 3097 1959 3097 
z
M 1959 3584 
Q 2709 3584 3137 3096 
Q 3566 2609 3566 1747 
Q 3566 888 3137 398 
Q 2709 -91 1959 -91 
Q 1206 -91 779 398 
Q 353 888 353 1747 
Q 353 2609 779 3096 
Q 1206 3584 1959 3584 
z
" transform="scale(0.015625)"/>
       <path id="DejaVuSans-6e" d="M 3513 2113 
L 3513 0 
L 2938 0 
L 2938 2094 
Q 2938 2591 2744 2837 
Q 2550 3084 2163 3084 
Q 1697 3084 1428 2787 
Q 1159 2491 1159 1978 
L 1159 0 
L 581 0 
L 581 3500 
L 1159 3500 
L 1159 2956 
Q 1366 3272 1645 3428 
Q 1925 3584 2291 3584 
Q 2894 3584 3203 3211 
Q 3513 2838 3513 2113 
z
" transform="scale(0.015625)"/>
       <path id="DejaVuSans-20" transform="scale(0.015625)"/>
       <path id="DejaVuSans-4c" d="M 628 4666 
L 1259 4666 
L 1259 531 
L 3531 531 
L 3531 0 
L 628 0 
L 628 4666 
z
" transform="scale(0.015625)"/>
      </defs>
      <use xlink:href="#DejaVuSans-56"/>
      <use xlink:href="#DejaVuSans-61" transform="translate(60.658203 0)"/>
      <use xlink:href="#DejaVuSans-6c" transform="translate(121.9375 0)"/>
      <use xlink:href="#DejaVuSans-69" transform="translate(149.720703 0)"/>
      <use xlink:href="#DejaVuSans-64" transform="translate(177.503906 0)"/>
      <use xlink:href="#DejaVuSans-61" transform="translate(240.980469 0)"/>
      <use xlink:href="#DejaVuSans-74" transform="translate(302.259766 0)"/>
      <use xlink:href="#DejaVuSans-69" transform="translate(341.46875 0)"/>
      <use xlink:href="#DejaVuSans-6f" transform="translate(369.251953 0)"/>
      <use xlink:href="#DejaVuSans-6e" transform="translate(430.433594 0)"/>
      <use xlink:href="#DejaVuSans-20" transform="translate(493.8125 0)"/>
      <use xlink:href="#DejaVuSans-4c" transform="translate(525.599609 0)"/>
      <use xlink:href="#DejaVuSans-6f" transform="translate(579.5625 0)"/>
      <use xlink:href="#DejaVuSans-73" transform="translate(640.744141 0)"/>
      <use xlink:href="#DejaVuSans-73" transform="translate(692.84375 0)"/>
     </g>
    </g>
   </g>
   <g id="line2d_27"/>
   <g id="line2d_28"/>
   <g id="line2d_29"/>
   <g id="line2d_30"/>
   <g id="line2d_31">
    <path d="M 92.290909 66.96 
L 94.801368 69.355637 
L 97.311827 71.703917 
L 99.822286 74.004841 
L 102.332746 76.258409 
L 104.843205 78.46462 
L 107.353664 80.623475 
L 109.864123 82.734974 
L 112.374582 84.799116 
L 114.885041 86.815902 
L 117.3955 88.785331 
L 119.905959 90.707405 
L 122.416419 92.582121 
L 124.926878 94.409482 
L 127.437337 96.189486 
L 129.947796 97.922134 
L 132.458255 99.607426 
L 134.968714 101.245361 
L 137.479173 102.835939 
L 139.989632 104.379162 
L 142.500092 105.875028 
L 145.010551 107.323538 
L 147.52101 108.724691 
L 150.031469 110.078488 
L 152.541928 111.384929 
L 155.052387 112.644014 
L 157.562846 113.855742 
L 160.073306 115.020113 
L 162.583765 116.137129 
L 165.094224 117.206788 
L 167.604683 118.22909 
L 170.115142 119.204037 
L 172.625601 120.131627 
L 175.13606 121.01186 
L 177.646519 121.844738 
L 180.156979 122.630259 
L 182.667438 123.368423 
L 185.177897 124.059232 
L 187.688356 124.702683 
L 190.198815 125.298779 
L 192.709274 125.847518 
L 195.219733 126.348901 
L 197.730192 126.802928 
L 200.240652 127.209598 
L 202.751111 127.568912 
L 205.26157 127.880869 
L 207.772029 128.14547 
L 210.282488 128.362715 
L 212.792947 128.532604 
L 215.303406 128.655136 
L 217.813865 128.730312 
L 220.324325 128.758131 
L 222.834784 128.738594 
L 225.345243 128.671701 
L 227.855702 128.557451 
L 230.366161 128.395845 
L 232.87662 128.186883 
L 235.387079 127.930564 
L 237.897538 127.626889 
L 240.407998 127.275858 
L 242.918457 126.877471 
L 245.428916 126.431727 
L 247.939375 125.938626 
L 250.449834 125.398169 
L 252.960293 124.810356 
L 255.470752 124.175187 
L 257.981211 123.492661 
L 260.491671 122.762779 
L 263.00213 121.985541 
L 265.512589 121.160946 
L 268.023048 120.288995 
L 270.533507 119.369687 
L 273.043966 118.403024 
L 275.554425 117.389004 
L 278.064884 116.327627 
L 280.575344 115.218894 
L 283.085803 114.062805 
L 285.596262 112.859359 
L 288.106721 111.608558 
L 290.61718 110.310399 
L 293.127639 108.964885 
L 295.638098 107.572014 
L 298.148557 106.131787 
L 300.659017 104.644203 
L 303.169476 103.109263 
L 305.679935 101.526967 
L 308.190394 99.897314 
L 310.700853 98.220305 
L 313.211312 96.49594 
L 315.721771 94.724218 
L 318.23223 92.90514 
L 320.74269 91.038706 
L 323.253149 89.124915 
L 325.763608 87.163768 
L 328.274067 85.155265 
L 330.784526 83.099405 
L 333.294985 80.996189 
L 335.805444 78.845617 
L 338.315903 76.647688 
L 340.826363 74.402403 
" clip-path="url(#pec3b67e10d)" style="fill: none; stroke: #1f77b4; stroke-width: 1.5; stroke-linecap: square"/>
   </g>
   <g id="line2d_32">
    <path d="M 92.290909 86.061563 
L 95.970871 91.021582 
L 99.650832 95.885773 
L 103.330794 100.654135 
L 107.010756 105.326669 
L 110.690717 109.903374 
L 114.370679 114.38425 
L 118.05064 118.769298 
L 121.730602 123.058518 
L 125.410564 127.251909 
L 129.090525 131.349471 
L 132.770487 135.351205 
L 136.450449 139.25711 
L 140.13041 143.067187 
L 143.810372 146.781436 
L 147.490333 150.399855 
L 151.170295 153.922447 
L 154.850257 157.34921 
L 158.530218 160.680144 
L 162.21018 163.91525 
L 165.890142 167.054527 
L 169.570103 170.097976 
L 173.250065 173.045596 
L 176.930026 175.897387 
L 180.609988 178.653351 
L 184.28995 181.313485 
L 187.969911 183.877791 
L 191.649873 186.346269 
L 195.329835 188.718918 
L 199.009796 190.995739 
L 202.689758 193.176731 
L 206.369719 195.261894 
L 210.049681 197.251229 
L 213.729643 199.144736 
L 217.409604 200.942414 
L 221.089566 202.644263 
L 224.769528 204.250284 
L 228.449489 205.760477 
L 232.129451 207.17484 
L 235.809412 208.493376 
L 239.489374 209.716083 
L 243.169336 210.842961 
L 246.849297 211.874011 
L 250.529259 212.809232 
L 254.20922 213.648625 
L 257.889182 214.392189 
L 261.569144 215.039925 
L 265.249105 215.591832 
L 268.929067 216.047911 
L 272.609029 216.408161 
L 276.28899 216.672583 
L 279.968952 216.841176 
L 283.648913 216.91394 
L 287.328875 216.890876 
L 291.008837 216.771984 
L 294.688798 216.557263 
L 298.36876 216.246714 
L 302.048722 215.840336 
L 305.728683 215.338129 
L 309.408645 214.740094 
L 313.088606 214.046231 
L 316.768568 213.256539 
L 320.44853 212.371018 
L 324.128491 211.389669 
L 327.808453 210.312491 
L 331.488415 209.139485 
L 335.168376 207.87065 
L 338.848338 206.505987 
L 342.528299 205.045496 
L 346.208261 203.489175 
L 349.888223 201.837027 
L 353.568184 200.089049 
L 357.248146 198.245244 
L 360.928108 196.305609 
L 364.608069 194.270146 
L 368.288031 192.138855 
L 371.967992 189.911735 
L 375.647954 187.588787 
L 379.327916 185.17001 
L 383.007877 182.655405 
L 386.687839 180.044971 
L 390.367801 177.338708 
L 394.047762 174.536617 
L 397.727724 171.638698 
L 401.407685 168.64495 
L 405.087647 165.555373 
L 408.767609 162.369968 
L 412.44757 159.088735 
L 416.127532 155.711672 
L 419.807494 152.238782 
L 423.487455 148.670063 
L 427.167417 145.005515 
L 430.847378 141.245139 
L 434.52734 137.388934 
L 438.207302 133.436901 
L 441.887263 129.389039 
L 445.567225 125.245349 
L 449.247187 121.00583 
L 452.927148 116.670483 
L 456.60711 112.239307 
" clip-path="url(#pec3b67e10d)" style="fill: none; stroke: #ff7f0e; stroke-width: 1.5; stroke-linecap: square"/>
   </g>
   <g id="line2d_33">
    <path d="M 301.770147 272.656818 
L 303.334157 273.529312 
L 304.898167 274.382069 
L 306.462176 275.215088 
L 308.026186 276.02837 
L 309.590196 276.821915 
L 311.154205 277.595722 
L 312.718215 278.349792 
L 314.282225 279.084124 
L 315.846235 279.798719 
L 317.410244 280.493576 
L 318.974254 281.168696 
L 320.538264 281.824079 
L 322.102274 282.459724 
L 323.666283 283.075632 
L 325.230293 283.671802 
L 326.794303 284.248235 
L 328.358312 284.804931 
L 329.922322 285.341889 
L 331.486332 285.85911 
L 333.050342 286.356593 
L 334.614351 286.834339 
L 336.178361 287.292347 
L 337.742371 287.730618 
L 339.30638 288.149152 
L 340.87039 288.547948 
L 342.4344 288.927007 
L 343.99841 289.286328 
L 345.562419 289.625912 
L 347.126429 289.945759 
L 348.690439 290.245868 
L 350.254449 290.52624 
L 351.818458 290.786874 
L 353.382468 291.027771 
L 354.946478 291.24893 
L 356.510487 291.450353 
L 358.074497 291.632037 
L 359.638507 291.793984 
L 361.202517 291.936194 
L 362.766526 292.058667 
L 364.330536 292.161402 
L 365.894546 292.244399 
L 367.458556 292.307659 
L 369.022565 292.351182 
L 370.586575 292.374968 
L 372.150585 292.379015 
L 373.714594 292.363326 
L 375.278604 292.327899 
L 376.842614 292.272735 
L 378.406624 292.197833 
L 379.970633 292.103194 
L 381.534643 291.988817 
L 383.098653 291.854703 
L 384.662662 291.700852 
L 386.226672 291.527263 
L 387.790682 291.333937 
L 389.354692 291.120873 
L 390.918701 290.888072 
L 392.482711 290.635534 
L 394.046721 290.363258 
L 395.610731 290.071245 
L 397.17474 289.759494 
L 398.73875 289.428006 
L 400.30276 289.07678 
L 401.866769 288.705817 
L 403.430779 288.315117 
L 404.994789 287.904679 
L 406.558799 287.474504 
L 408.122808 287.024592 
L 409.686818 286.554942 
L 411.250828 286.065554 
L 412.814837 285.556429 
L 414.378847 285.027567 
L 415.942857 284.478967 
L 417.506867 283.91063 
L 419.070876 283.322556 
L 420.634886 282.714744 
L 422.198896 282.087195 
L 423.762906 281.439908 
L 425.326915 280.772884 
L 426.890925 280.086122 
L 428.454935 279.379623 
L 430.018944 278.653387 
L 431.582954 277.907413 
L 433.146964 277.141702 
L 434.710974 276.356253 
L 436.274983 275.551067 
L 437.838993 274.726143 
L 439.403003 273.881483 
L 440.967013 273.017084 
L 442.531022 272.132949 
L 444.095032 271.229075 
L 445.659042 270.305465 
L 447.223051 269.362117 
L 448.787061 268.399032 
L 450.351071 267.416209 
L 451.915081 266.413649 
L 453.47909 265.391351 
L 455.0431 264.349316 
L 456.60711 263.287543 
" clip-path="url(#pec3b67e10d)" style="fill: none; stroke: #2ca02c; stroke-width: 1.5; stroke-linecap: square"/>
   </g>
   <g id="line2d_34">
    <path d="M 375.564682 345.326727 
L 376.802504 346.224949 
L 378.040326 347.105956 
L 379.278149 347.96975 
L 380.515971 348.81633 
L 381.753793 349.645695 
L 382.991616 350.457847 
L 384.229438 351.252784 
L 385.46726 352.030507 
L 386.705083 352.791016 
L 387.942905 353.534311 
L 389.180727 354.260392 
L 390.41855 354.969259 
L 391.656372 355.660912 
L 392.894194 356.33535 
L 394.132017 356.992575 
L 395.369839 357.632585 
L 396.607661 358.255382 
L 397.845484 358.860964 
L 399.083306 359.449332 
L 400.321128 360.020486 
L 401.55895 360.574426 
L 402.796773 361.111152 
L 404.034595 361.630664 
L 405.272417 362.132962 
L 406.51024 362.618046 
L 407.748062 363.085915 
L 408.985884 363.536571 
L 410.223707 363.970012 
L 411.461529 364.386239 
L 412.699351 364.785253 
L 413.937174 365.167052 
L 415.174996 365.531637 
L 416.412818 365.879008 
L 417.650641 366.209165 
L 418.888463 366.522107 
L 420.126285 366.817836 
L 421.364107 367.096351 
L 422.60193 367.357651 
L 423.839752 367.601737 
L 425.077574 367.82861 
L 426.315397 368.038268 
L 427.553219 368.230712 
L 428.791041 368.405942 
L 430.028864 368.563958 
L 431.266686 368.70476 
L 432.504508 368.828348 
L 433.742331 368.934721 
L 434.980153 369.023881 
L 436.217975 369.095826 
L 437.455798 369.150558 
L 438.69362 369.188075 
L 439.931442 369.208378 
L 441.169264 369.211467 
L 442.407087 369.197343 
L 443.644909 369.166003 
L 444.882731 369.11745 
L 446.120554 369.051683 
L 447.358376 368.968702 
L 448.596198 368.868506 
L 449.834021 368.751097 
L 451.071843 368.616473 
L 452.309665 368.464636 
L 453.547488 368.295584 
L 454.78531 368.109318 
L 456.023132 367.905838 
L 457.260955 367.685144 
L 458.498777 367.447236 
L 459.736599 367.192113 
L 460.974421 366.919777 
L 462.212244 366.630227 
L 463.450066 366.323462 
L 464.687888 365.999484 
L 465.925711 365.658291 
L 467.163533 365.299884 
L 468.401355 364.924263 
L 469.639178 364.531428 
L 470.877 364.121379 
L 472.114822 363.694116 
L 473.352645 363.249639 
L 474.590467 362.787948 
L 475.828289 362.309042 
L 477.066112 361.812923 
L 478.303934 361.299589 
L 479.541756 360.769041 
L 480.779579 360.22128 
L 482.017401 359.656304 
L 483.255223 359.074114 
L 484.493045 358.47471 
L 485.730868 357.858091 
L 486.96869 357.224259 
L 488.206512 356.573213 
L 489.444335 355.904953 
L 490.682157 355.219478 
L 491.919979 354.516789 
L 493.157802 353.796887 
L 494.395624 353.05977 
L 495.633446 352.305439 
L 496.871269 351.533894 
L 498.109091 350.745135 
" clip-path="url(#pec3b67e10d)" style="fill: none; stroke: #d62728; stroke-width: 1.5; stroke-linecap: square"/>
   </g>
   <g id="patch_3">
    <path d="M 72 384.48 
L 72 51.84 
" style="fill: none; stroke: #000000; stroke-width: 0.8; stroke-linejoin: miter; stroke-linecap: square"/>
   </g>
   <g id="patch_4">
    <path d="M 518.4 384.48 
L 518.4 51.84 
" style="fill: none; stroke: #000000; stroke-width: 0.8; stroke-linejoin: miter; stroke-linecap: square"/>
   </g>
   <g id="patch_5">
    <path d="M 72 384.48 
L 518.4 384.48 
" style="fill: none; stroke: #000000; stroke-width: 0.8; stroke-linejoin: miter; stroke-linecap: square"/>
   </g>
   <g id="patch_6">
    <path d="M 72 51.84 
L 518.4 51.84 
" style="fill: none; stroke: #000000; stroke-width: 0.8; stroke-linejoin: miter; stroke-linecap: square"/>
   </g>
   <g id="text_16">
    <!-- IsoFLOP Transformer Curves (on-going) -->
    <g transform="translate(178.089375 45.84) scale(0.12 -0.12)">
     <defs>
      <path id="DejaVuSans-49" d="M 628 4666 
L 1259 4666 
L 1259 0 
L 628 0 
L 628 4666 
z
" transform="scale(0.015625)"/>
      <path id="DejaVuSans-46" d="M 628 4666 
L 3309 4666 
L 3309 4134 
L 1259 4134 
L 1259 2759 
L 3109 2759 
L 3109 2228 
L 1259 2228 
L 1259 0 
L 628 0 
L 628 4666 
z
" transform="scale(0.015625)"/>
      <path id="DejaVuSans-4f" d="M 2522 4238 
Q 1834 4238 1429 3725 
Q 1025 3213 1025 2328 
Q 1025 1447 1429 934 
Q 1834 422 2522 422 
Q 3209 422 3611 934 
Q 4013 1447 4013 2328 
Q 4013 3213 3611 3725 
Q 3209 4238 2522 4238 
z
M 2522 4750 
Q 3503 4750 4090 4092 
Q 4678 3434 4678 2328 
Q 4678 1225 4090 567 
Q 3503 -91 2522 -91 
Q 1538 -91 948 565 
Q 359 1222 359 2328 
Q 359 3434 948 4092 
Q 1538 4750 2522 4750 
z
" transform="scale(0.015625)"/>
      <path id="DejaVuSans-54" d="M -19 4666 
L 3928 4666 
L 3928 4134 
L 2272 4134 
L 2272 0 
L 1638 0 
L 1638 4134 
L -19 4134 
L -19 4666 
z
" transform="scale(0.015625)"/>
      <path id="DejaVuSans-66" d="M 2375 4863 
L 2375 4384 
L 1825 4384 
Q 1516 4384 1395 4259 
Q 1275 4134 1275 3809 
L 1275 3500 
L 2222 3500 
L 2222 3053 
L 1275 3053 
L 1275 0 
L 697 0 
L 697 3053 
L 147 3053 
L 147 3500 
L 697 3500 
L 697 3744 
Q 697 4328 969 4595 
Q 1241 4863 1831 4863 
L 2375 4863 
z
" transform="scale(0.015625)"/>
      <path id="DejaVuSans-43" d="M 4122 4306 
L 4122 3641 
Q 3803 3938 3442 4084 
Q 3081 4231 2675 4231 
Q 1875 4231 1450 3742 
Q 1025 3253 1025 2328 
Q 1025 1406 1450 917 
Q 1875 428 2675 428 
Q 3081 428 3442 575 
Q 3803 722 4122 1019 
L 4122 359 
Q 3791 134 3420 21 
Q 3050 -91 2638 -91 
Q 1578 -91 968 557 
Q 359 1206 359 2328 
Q 359 3453 968 4101 
Q 1578 4750 2638 4750 
Q 3056 4750 3426 4639 
Q 3797 4528 4122 4306 
z
" transform="scale(0.015625)"/>
      <path id="DejaVuSans-75" d="M 544 1381 
L 544 3500 
L 1119 3500 
L 1119 1403 
Q 1119 906 1312 657 
Q 1506 409 1894 409 
Q 2359 409 2629 706 
Q 2900 1003 2900 1516 
L 2900 3500 
L 3475 3500 
L 3475 0 
L 2900 0 
L 2900 538 
Q 2691 219 2414 64 
Q 2138 -91 1772 -91 
Q 1169 -91 856 284 
Q 544 659 544 1381 
z
M 1991 3584 
L 1991 3584 
z
" transform="scale(0.015625)"/>
      <path id="DejaVuSans-76" d="M 191 3500 
L 800 3500 
L 1894 563 
L 2988 3500 
L 3597 3500 
L 2284 0 
L 1503 0 
L 191 3500 
z
" transform="scale(0.015625)"/>
      <path id="DejaVuSans-28" d="M 1984 4856 
Q 1566 4138 1362 3434 
Q 1159 2731 1159 2009 
Q 1159 1288 1364 580 
Q 1569 -128 1984 -844 
L 1484 -844 
Q 1016 -109 783 600 
Q 550 1309 550 2009 
Q 550 2706 781 3412 
Q 1013 4119 1484 4856 
L 1984 4856 
z
" transform="scale(0.015625)"/>
      <path id="DejaVuSans-2d" d="M 313 2009 
L 1997 2009 
L 1997 1497 
L 313 1497 
L 313 2009 
z
" transform="scale(0.015625)"/>
      <path id="DejaVuSans-67" d="M 2906 1791 
Q 2906 2416 2648 2759 
Q 2391 3103 1925 3103 
Q 1463 3103 1205 2759 
Q 947 2416 947 1791 
Q 947 1169 1205 825 
Q 1463 481 1925 481 
Q 2391 481 2648 825 
Q 2906 1169 2906 1791 
z
M 3481 434 
Q 3481 -459 3084 -895 
Q 2688 -1331 1869 -1331 
Q 1566 -1331 1297 -1286 
Q 1028 -1241 775 -1147 
L 775 -588 
Q 1028 -725 1275 -790 
Q 1522 -856 1778 -856 
Q 2344 -856 2625 -561 
Q 2906 -266 2906 331 
L 2906 616 
Q 2728 306 2450 153 
Q 2172 0 1784 0 
Q 1141 0 747 490 
Q 353 981 353 1791 
Q 353 2603 747 3093 
Q 1141 3584 1784 3584 
Q 2172 3584 2450 3431 
Q 2728 3278 2906 2969 
L 2906 3500 
L 3481 3500 
L 3481 434 
z
" transform="scale(0.015625)"/>
      <path id="DejaVuSans-29" d="M 513 4856 
L 1013 4856 
Q 1481 4119 1714 3412 
Q 1947 2706 1947 2009 
Q 1947 1309 1714 600 
Q 1481 -109 1013 -844 
L 513 -844 
Q 928 -128 1133 580 
Q 1338 1288 1338 2009 
Q 1338 2731 1133 3434 
Q 928 4138 513 4856 
z
" transform="scale(0.015625)"/>
     </defs>
     <use xlink:href="#DejaVuSans-49"/>
     <use xlink:href="#DejaVuSans-73" transform="translate(29.492188 0)"/>
     <use xlink:href="#DejaVuSans-6f" transform="translate(81.591797 0)"/>
     <use xlink:href="#DejaVuSans-46" transform="translate(142.773438 0)"/>
     <use xlink:href="#DejaVuSans-4c" transform="translate(200.292969 0)"/>
     <use xlink:href="#DejaVuSans-4f" transform="translate(252.380859 0)"/>
     <use xlink:href="#DejaVuSans-50" transform="translate(331.091797 0)"/>
     <use xlink:href="#DejaVuSans-20" transform="translate(391.394531 0)"/>
     <use xlink:href="#DejaVuSans-54" transform="translate(423.181641 0)"/>
     <use xlink:href="#DejaVuSans-72" transform="translate(469.515625 0)"/>
     <use xlink:href="#DejaVuSans-61" transform="translate(510.628906 0)"/>
     <use xlink:href="#DejaVuSans-6e" transform="translate(571.908203 0)"/>
     <use xlink:href="#DejaVuSans-73" transform="translate(635.287109 0)"/>
     <use xlink:href="#DejaVuSans-66" transform="translate(687.386719 0)"/>
     <use xlink:href="#DejaVuSans-6f" transform="translate(722.591797 0)"/>
     <use xlink:href="#DejaVuSans-72" transform="translate(783.773438 0)"/>
     <use xlink:href="#DejaVuSans-6d" transform="translate(823.136719 0)"/>
     <use xlink:href="#DejaVuSans-65" transform="translate(920.548828 0)"/>
     <use xlink:href="#DejaVuSans-72" transform="translate(982.072266 0)"/>
     <use xlink:href="#DejaVuSans-20" transform="translate(1023.185547 0)"/>
     <use xlink:href="#DejaVuSans-43" transform="translate(1054.972656 0)"/>
     <use xlink:href="#DejaVuSans-75" transform="translate(1124.796875 0)"/>
     <use xlink:href="#DejaVuSans-72" transform="translate(1188.175781 0)"/>
     <use xlink:href="#DejaVuSans-76" transform="translate(1229.289062 0)"/>
     <use xlink:href="#DejaVuSans-65" transform="translate(1288.46875 0)"/>
     <use xlink:href="#DejaVuSans-73" transform="translate(1349.992188 0)"/>
     <use xlink:href="#DejaVuSans-20" transform="translate(1402.091797 0)"/>
     <use xlink:href="#DejaVuSans-28" transform="translate(1433.878906 0)"/>
     <use xlink:href="#DejaVuSans-6f" transform="translate(1472.892578 0)"/>
     <use xlink:href="#DejaVuSans-6e" transform="translate(1534.074219 0)"/>
     <use xlink:href="#DejaVuSans-2d" transform="translate(1597.453125 0)"/>
     <use xlink:href="#DejaVuSans-67" transform="translate(1633.537109 0)"/>
     <use xlink:href="#DejaVuSans-6f" transform="translate(1697.013672 0)"/>
     <use xlink:href="#DejaVuSans-69" transform="translate(1758.195312 0)"/>
     <use xlink:href="#DejaVuSans-6e" transform="translate(1785.978516 0)"/>
     <use xlink:href="#DejaVuSans-67" transform="translate(1849.357422 0)"/>
     <use xlink:href="#DejaVuSans-29" transform="translate(1912.833984 0)"/>
    </g>
   </g>
   <g id="legend_1">
    <g id="patch_7">
     <path d="M 79 379.48 
L 182.057813 379.48 
Q 184.057813 379.48 184.057813 377.48 
L 184.057813 305.089375 
Q 184.057813 303.089375 182.057813 303.089375 
L 79 303.089375 
Q 77 303.089375 77 305.089375 
L 77 377.48 
Q 77 379.48 79 379.48 
z
" style="fill: #ffffff; opacity: 0.8; stroke: #cccccc; stroke-linejoin: miter"/>
    </g>
    <g id="text_17">
     <!-- Total Training FLOPs -->
     <g transform="translate(81 314.687813) scale(0.1 -0.1)">
      <use xlink:href="#DejaVuSans-54"/>
      <use xlink:href="#DejaVuSans-6f" transform="translate(44.083984 0)"/>
      <use xlink:href="#DejaVuSans-74" transform="translate(105.265625 0)"/>
      <use xlink:href="#DejaVuSans-61" transform="translate(144.474609 0)"/>
      <use xlink:href="#DejaVuSans-6c" transform="translate(205.753906 0)"/>
      <use xlink:href="#DejaVuSans-20" transform="translate(233.537109 0)"/>
      <use xlink:href="#DejaVuSans-54" transform="translate(265.324219 0)"/>
      <use xlink:href="#DejaVuSans-72" transform="translate(311.658203 0)"/>
      <use xlink:href="#DejaVuSans-61" transform="translate(352.771484 0)"/>
      <use xlink:href="#DejaVuSans-69" transform="translate(414.050781 0)"/>
      <use xlink:href="#DejaVuSans-6e" transform="translate(441.833984 0)"/>
      <use xlink:href="#DejaVuSans-69" transform="translate(505.212891 0)"/>
      <use xlink:href="#DejaVuSans-6e" transform="translate(532.996094 0)"/>
      <use xlink:href="#DejaVuSans-67" transform="translate(596.375 0)"/>
      <use xlink:href="#DejaVuSans-20" transform="translate(659.851562 0)"/>
      <use xlink:href="#DejaVuSans-46" transform="translate(691.638672 0)"/>
      <use xlink:href="#DejaVuSans-4c" transform="translate(749.158203 0)"/>
      <use xlink:href="#DejaVuSans-4f" transform="translate(801.246094 0)"/>
      <use xlink:href="#DejaVuSans-50" transform="translate(879.957031 0)"/>
      <use xlink:href="#DejaVuSans-73" transform="translate(938.509766 0)"/>
     </g>
    </g>
    <g id="line2d_35">
     <defs>
      <path id="m67e28fbb32" d="M 0 3 
C 0.795609 3 1.55874 2.683901 2.12132 2.12132 
C 2.683901 1.55874 3 0.795609 3 0 
C 3 -0.795609 2.683901 -1.55874 2.12132 -2.12132 
C 1.55874 -2.683901 0.795609 -3 0 -3 
C -0.795609 -3 -1.55874 -2.683901 -2.12132 -2.12132 
C -2.683901 -1.55874 -3 -0.795609 -3 0 
C -3 0.795609 -2.683901 1.55874 -2.12132 2.12132 
C -1.55874 2.683901 -0.795609 3 0 3 
z
" style="stroke: #ffffff; stroke-width: 0.48"/>
     </defs>
     <g>
      <use xlink:href="#m67e28fbb32" x="92.223438" y="325.865937" style="fill: #1f77b4; stroke: #ffffff; stroke-width: 0.48"/>
     </g>
    </g>
    <g id="text_18">
     <!-- 1.917e+16 -->
     <g transform="translate(110.223438 329.365937) scale(0.1 -0.1)">
      <defs>
       <path id="DejaVuSans-39" d="M 703 97 
L 703 672 
Q 941 559 1184 500 
Q 1428 441 1663 441 
Q 2288 441 2617 861 
Q 2947 1281 2994 2138 
Q 2813 1869 2534 1725 
Q 2256 1581 1919 1581 
Q 1219 1581 811 2004 
Q 403 2428 403 3163 
Q 403 3881 828 4315 
Q 1253 4750 1959 4750 
Q 2769 4750 3195 4129 
Q 3622 3509 3622 2328 
Q 3622 1225 3098 567 
Q 2575 -91 1691 -91 
Q 1453 -91 1209 -44 
Q 966 3 703 97 
z
M 1959 2075 
Q 2384 2075 2632 2365 
Q 2881 2656 2881 3163 
Q 2881 3666 2632 3958 
Q 2384 4250 1959 4250 
Q 1534 4250 1286 3958 
Q 1038 3666 1038 3163 
Q 1038 2656 1286 2365 
Q 1534 2075 1959 2075 
z
" transform="scale(0.015625)"/>
       <path id="DejaVuSans-2b" d="M 2944 4013 
L 2944 2272 
L 4684 2272 
L 4684 1741 
L 2944 1741 
L 2944 0 
L 2419 0 
L 2419 1741 
L 678 1741 
L 678 2272 
L 2419 2272 
L 2419 4013 
L 2944 4013 
z
" transform="scale(0.015625)"/>
      </defs>
      <use xlink:href="#DejaVuSans-31"/>
      <use xlink:href="#DejaVuSans-2e" transform="translate(63.623047 0)"/>
      <use xlink:href="#DejaVuSans-39" transform="translate(95.410156 0)"/>
      <use xlink:href="#DejaVuSans-31" transform="translate(159.033203 0)"/>
      <use xlink:href="#DejaVuSans-37" transform="translate(222.65625 0)"/>
      <use xlink:href="#DejaVuSans-65" transform="translate(286.279297 0)"/>
      <use xlink:href="#DejaVuSans-2b" transform="translate(347.802734 0)"/>
      <use xlink:href="#DejaVuSans-31" transform="translate(431.591797 0)"/>
      <use xlink:href="#DejaVuSans-36" transform="translate(495.214844 0)"/>
     </g>
    </g>
    <g id="line2d_36">
     <defs>
      <path id="m72c7886cf1" d="M 0 3 
C 0.795609 3 1.55874 2.683901 2.12132 2.12132 
C 2.683901 1.55874 3 0.795609 3 0 
C 3 -0.795609 2.683901 -1.55874 2.12132 -2.12132 
C 1.55874 -2.683901 0.795609 -3 0 -3 
C -0.795609 -3 -1.55874 -2.683901 -2.12132 -2.12132 
C -2.683901 -1.55874 -3 -0.795609 -3 0 
C -3 0.795609 -2.683901 1.55874 -2.12132 2.12132 
C -1.55874 2.683901 -0.795609 3 0 3 
z
" style="stroke: #ffffff; stroke-width: 0.48"/>
     </defs>
     <g>
      <use xlink:href="#m72c7886cf1" x="92.223438" y="340.544062" style="fill: #ff7f0e; stroke: #ffffff; stroke-width: 0.48"/>
     </g>
    </g>
    <g id="text_19">
     <!-- 7.668e+16 -->
     <g transform="translate(110.223438 344.044062) scale(0.1 -0.1)">
      <use xlink:href="#DejaVuSans-37"/>
      <use xlink:href="#DejaVuSans-2e" transform="translate(63.623047 0)"/>
      <use xlink:href="#DejaVuSans-36" transform="translate(95.410156 0)"/>
      <use xlink:href="#DejaVuSans-36" transform="translate(159.033203 0)"/>
      <use xlink:href="#DejaVuSans-38" transform="translate(222.65625 0)"/>
      <use xlink:href="#DejaVuSans-65" transform="translate(286.279297 0)"/>
      <use xlink:href="#DejaVuSans-2b" transform="translate(347.802734 0)"/>
      <use xlink:href="#DejaVuSans-31" transform="translate(431.591797 0)"/>
      <use xlink:href="#DejaVuSans-36" transform="translate(495.214844 0)"/>
     </g>
    </g>
    <g id="line2d_37">
     <defs>
      <path id="m255b92cf03" d="M 0 3 
C 0.795609 3 1.55874 2.683901 2.12132 2.12132 
C 2.683901 1.55874 3 0.795609 3 0 
C 3 -0.795609 2.683901 -1.55874 2.12132 -2.12132 
C 1.55874 -2.683901 0.795609 -3 0 -3 
C -0.795609 -3 -1.55874 -2.683901 -2.12132 -2.12132 
C -2.683901 -1.55874 -3 -0.795609 -3 0 
C -3 0.795609 -2.683901 1.55874 -2.12132 2.12132 
C -1.55874 2.683901 -0.795609 3 0 3 
z
" style="stroke: #ffffff; stroke-width: 0.48"/>
     </defs>
     <g>
      <use xlink:href="#m255b92cf03" x="92.223438" y="355.222188" style="fill: #2ca02c; stroke: #ffffff; stroke-width: 0.48"/>
     </g>
    </g>
    <g id="text_20">
     <!-- 3.067e+17 -->
     <g transform="translate(110.223438 358.722188) scale(0.1 -0.1)">
      <use xlink:href="#DejaVuSans-33"/>
      <use xlink:href="#DejaVuSans-2e" transform="translate(63.623047 0)"/>
      <use xlink:href="#DejaVuSans-30" transform="translate(95.410156 0)"/>
      <use xlink:href="#DejaVuSans-36" transform="translate(159.033203 0)"/>
      <use xlink:href="#DejaVuSans-37" transform="translate(222.65625 0)"/>
      <use xlink:href="#DejaVuSans-65" transform="translate(286.279297 0)"/>
      <use xlink:href="#DejaVuSans-2b" transform="translate(347.802734 0)"/>
      <use xlink:href="#DejaVuSans-31" transform="translate(431.591797 0)"/>
      <use xlink:href="#DejaVuSans-37" transform="translate(495.214844 0)"/>
     </g>
    </g>
    <g id="line2d_38">
     <defs>
      <path id="mff101527af" d="M 0 3 
C 0.795609 3 1.55874 2.683901 2.12132 2.12132 
C 2.683901 1.55874 3 0.795609 3 0 
C 3 -0.795609 2.683901 -1.55874 2.12132 -2.12132 
C 1.55874 -2.683901 0.795609 -3 0 -3 
C -0.795609 -3 -1.55874 -2.683901 -2.12132 -2.12132 
C -2.683901 -1.55874 -3 -0.795609 -3 0 
C -3 0.795609 -2.683901 1.55874 -2.12132 2.12132 
C -1.55874 2.683901 -0.795609 3 0 3 
z
" style="stroke: #ffffff; stroke-width: 0.48"/>
     </defs>
     <g>
      <use xlink:href="#mff101527af" x="92.223438" y="369.900312" style="fill: #d62728; stroke: #ffffff; stroke-width: 0.48"/>
     </g>
    </g>
    <g id="text_21">
     <!-- 1.22688e+18 -->
     <g transform="translate(110.223438 373.400312) scale(0.1 -0.1)">
      <use xlink:href="#DejaVuSans-31"/>
      <use xlink:href="#DejaVuSans-2e" transform="translate(63.623047 0)"/>
      <use xlink:href="#DejaVuSans-32" transform="translate(95.410156 0)"/>
      <use xlink:href="#DejaVuSans-32" transform="translate(159.033203 0)"/>
      <use xlink:href="#DejaVuSans-36" transform="translate(222.65625 0)"/>
      <use xlink:href="#DejaVuSans-38" transform="translate(286.279297 0)"/>
      <use xlink:href="#DejaVuSans-38" transform="translate(349.902344 0)"/>
      <use xlink:href="#DejaVuSans-65" transform="translate(413.525391 0)"/>
      <use xlink:href="#DejaVuSans-2b" transform="translate(475.048828 0)"/>
      <use xlink:href="#DejaVuSans-31" transform="translate(558.837891 0)"/>
      <use xlink:href="#DejaVuSans-38" transform="translate(622.460938 0)"/>
     </g>
    </g>
   </g>
   <g id="legend_2">
    <g id="patch_8">
     <path d="M 385.475 89.19625 
L 511.4 89.19625 
Q 513.4 89.19625 513.4 87.19625 
L 513.4 58.84 
Q 513.4 56.84 511.4 56.84 
L 385.475 56.84 
Q 383.475 56.84 383.475 58.84 
L 383.475 87.19625 
Q 383.475 89.19625 385.475 89.19625 
z
" style="fill: #ffffff; opacity: 0.8; stroke: #cccccc; stroke-linejoin: miter"/>
    </g>
    <g id="line2d_39">
     <path d="M 387.475 64.938437 
L 397.475 64.938437 
L 407.475 64.938437 
" style="fill: none; stroke: #ffffff; stroke-width: 1.5; stroke-linecap: square"/>
     <defs>
      <path id="mbcb50c6ecd" d="M 0 5 
C 1.326016 5 2.597899 4.473168 3.535534 3.535534 
C 4.473168 2.597899 5 1.326016 5 0 
C 5 -1.326016 4.473168 -2.597899 3.535534 -3.535534 
C 2.597899 -4.473168 1.326016 -5 0 -5 
C -1.326016 -5 -2.597899 -4.473168 -3.535534 -3.535534 
C -4.473168 -2.597899 -5 -1.326016 -5 0 
C -5 1.326016 -4.473168 2.597899 -3.535534 3.535534 
C -2.597899 4.473168 -1.326016 5 0 5 
z
" style="stroke: #ffffff"/>
     </defs>
     <g>
      <use xlink:href="#mbcb50c6ecd" x="397.475" y="64.938437" style="stroke: #ffffff"/>
     </g>
    </g>
    <g id="text_22">
     <!-- Experiment Data -->
     <g transform="translate(415.475 68.438437) scale(0.1 -0.1)">
      <defs>
       <path id="DejaVuSans-45" d="M 628 4666 
L 3578 4666 
L 3578 4134 
L 1259 4134 
L 1259 2753 
L 3481 2753 
L 3481 2222 
L 1259 2222 
L 1259 531 
L 3634 531 
L 3634 0 
L 628 0 
L 628 4666 
z
" transform="scale(0.015625)"/>
       <path id="DejaVuSans-78" d="M 3513 3500 
L 2247 1797 
L 3578 0 
L 2900 0 
L 1881 1375 
L 863 0 
L 184 0 
L 1544 1831 
L 300 3500 
L 978 3500 
L 1906 2253 
L 2834 3500 
L 3513 3500 
z
" transform="scale(0.015625)"/>
       <path id="DejaVuSans-70" d="M 1159 525 
L 1159 -1331 
L 581 -1331 
L 581 3500 
L 1159 3500 
L 1159 2969 
Q 1341 3281 1617 3432 
Q 1894 3584 2278 3584 
Q 2916 3584 3314 3078 
Q 3713 2572 3713 1747 
Q 3713 922 3314 415 
Q 2916 -91 2278 -91 
Q 1894 -91 1617 61 
Q 1341 213 1159 525 
z
M 3116 1747 
Q 3116 2381 2855 2742 
Q 2594 3103 2138 3103 
Q 1681 3103 1420 2742 
Q 1159 2381 1159 1747 
Q 1159 1113 1420 752 
Q 1681 391 2138 391 
Q 2594 391 2855 752 
Q 3116 1113 3116 1747 
z
" transform="scale(0.015625)"/>
       <path id="DejaVuSans-44" d="M 1259 4147 
L 1259 519 
L 2022 519 
Q 2988 519 3436 956 
Q 3884 1394 3884 2338 
Q 3884 3275 3436 3711 
Q 2988 4147 2022 4147 
L 1259 4147 
z
M 628 4666 
L 1925 4666 
Q 3281 4666 3915 4102 
Q 4550 3538 4550 2338 
Q 4550 1131 3912 565 
Q 3275 0 1925 0 
L 628 0 
L 628 4666 
z
" transform="scale(0.015625)"/>
      </defs>
      <use xlink:href="#DejaVuSans-45"/>
      <use xlink:href="#DejaVuSans-78" transform="translate(63.183594 0)"/>
      <use xlink:href="#DejaVuSans-70" transform="translate(122.363281 0)"/>
      <use xlink:href="#DejaVuSans-65" transform="translate(185.839844 0)"/>
      <use xlink:href="#DejaVuSans-72" transform="translate(247.363281 0)"/>
      <use xlink:href="#DejaVuSans-69" transform="translate(288.476562 0)"/>
      <use xlink:href="#DejaVuSans-6d" transform="translate(316.259766 0)"/>
      <use xlink:href="#DejaVuSans-65" transform="translate(413.671875 0)"/>
      <use xlink:href="#DejaVuSans-6e" transform="translate(475.195312 0)"/>
      <use xlink:href="#DejaVuSans-74" transform="translate(538.574219 0)"/>
      <use xlink:href="#DejaVuSans-20" transform="translate(577.783203 0)"/>
      <use xlink:href="#DejaVuSans-44" transform="translate(609.570312 0)"/>
      <use xlink:href="#DejaVuSans-61" transform="translate(686.572266 0)"/>
      <use xlink:href="#DejaVuSans-74" transform="translate(747.851562 0)"/>
      <use xlink:href="#DejaVuSans-61" transform="translate(787.060547 0)"/>
     </g>
    </g>
    <g id="line2d_40">
     <path d="M 387.475 79.616562 
L 397.475 79.616562 
L 407.475 79.616562 
" style="fill: none; stroke: #ffffff; stroke-width: 1.5; stroke-linecap: square"/>
     <defs>
      <path id="ma0f094ae5c" d="M -5 5 
L 5 -5 
M -5 -5 
L 5 5 
" style="stroke: #000000"/>
     </defs>
     <g>
      <use xlink:href="#ma0f094ae5c" x="397.475" y="79.616562" style="fill: #ffffff; stroke: #000000"/>
     </g>
    </g>
    <g id="text_23">
     <!-- Curve Fit Minimum -->
     <g transform="translate(415.475 83.116562) scale(0.1 -0.1)">
      <defs>
       <path id="DejaVuSans-4d" d="M 628 4666 
L 1569 4666 
L 2759 1491 
L 3956 4666 
L 4897 4666 
L 4897 0 
L 4281 0 
L 4281 4097 
L 3078 897 
L 2444 897 
L 1241 4097 
L 1241 0 
L 628 0 
L 628 4666 
z
" transform="scale(0.015625)"/>
      </defs>
      <use xlink:href="#DejaVuSans-43"/>
      <use xlink:href="#DejaVuSans-75" transform="translate(69.824219 0)"/>
      <use xlink:href="#DejaVuSans-72" transform="translate(133.203125 0)"/>
      <use xlink:href="#DejaVuSans-76" transform="translate(174.316406 0)"/>
      <use xlink:href="#DejaVuSans-65" transform="translate(233.496094 0)"/>
      <use xlink:href="#DejaVuSans-20" transform="translate(295.019531 0)"/>
      <use xlink:href="#DejaVuSans-46" transform="translate(326.806641 0)"/>
      <use xlink:href="#DejaVuSans-69" transform="translate(377.076172 0)"/>
      <use xlink:href="#DejaVuSans-74" transform="translate(404.859375 0)"/>
      <use xlink:href="#DejaVuSans-20" transform="translate(444.068359 0)"/>
      <use xlink:href="#DejaVuSans-4d" transform="translate(475.855469 0)"/>
      <use xlink:href="#DejaVuSans-69" transform="translate(562.134766 0)"/>
      <use xlink:href="#DejaVuSans-6e" transform="translate(589.917969 0)"/>
      <use xlink:href="#DejaVuSans-69" transform="translate(653.296875 0)"/>
      <use xlink:href="#DejaVuSans-6d" transform="translate(681.080078 0)"/>
      <use xlink:href="#DejaVuSans-75" transform="translate(778.492188 0)"/>
      <use xlink:href="#DejaVuSans-6d" transform="translate(841.871094 0)"/>
     </g>
    </g>
   </g>
  </g>
 </g>
 <defs>
  <clipPath id="pec3b67e10d">
   <rect x="72" y="51.84" width="446.4" height="332.64"/>
  </clipPath>
 </defs>
</svg>
