<?xml version="1.0" encoding="utf-8" standalone="no"?>
<!DOCTYPE svg PUBLIC "-//W3C//DTD SVG 1.1//EN"
  "http://www.w3.org/Graphics/SVG/1.1/DTD/svg11.dtd">
<svg xmlns:xlink="http://www.w3.org/1999/xlink" width="576pt" height="432pt" viewBox="0 0 576 432" xmlns="http://www.w3.org/2000/svg" version="1.1">
 <metadata>
  <rdf:RDF xmlns:dc="http://purl.org/dc/elements/1.1/" xmlns:cc="http://creativecommons.org/ns#" xmlns:rdf="http://www.w3.org/1999/02/22-rdf-syntax-ns#">
   <cc:Work>
    <dc:type rdf:resource="http://purl.org/dc/dcmitype/StillImage"/>
    <dc:date>2025-12-11T21:59:30.504856</dc:date>
    <dc:format>image/svg+xml</dc:format>
    <dc:creator>
     <cc:Agent>
      <dc:title>Matplotlib v3.10.7, https://matplotlib.org/</dc:title>
     </cc:Agent>
    </dc:creator>
   </cc:Work>
  </rdf:RDF>
 </metadata>
 <defs>
  <style type="text/css">*{stroke-linejoin: round; stroke-linecap: butt}</style>
 </defs>
 <g id="figure_1">
  <g id="patch_1">
   <path d="M 0 432 
L 576 432 
L 576 0 
L 0 0 
z
" style="fill: #ffffff"/>
  </g>
  <g id="axes_1">
   <g id="patch_2">
    <path d="M 72 384.48 
L 518.4 384.48 
L 518.4 51.84 
L 72 51.84 
z
" style="fill: #ffffff"/>
   </g>
   <g id="PathCollection_1">
    <defs>
     <path id="C0_0_e778755b44" d="M 0 3 
C 0.795609 3 1.55874 2.683901 2.12132 2.12132 
C 2.683901 1.55874 3 0.795609 3 -0 
C 3 -0.795609 2.683901 -1.55874 2.12132 -2.12132 
C 1.55874 -2.683901 0.795609 -3 0 -3 
C -0.795609 -3 -1.55874 -2.683901 -2.12132 -2.12132 
C -2.683901 -1.55874 -3 -0.795609 -3 0 
C -3 0.795609 -2.683901 1.55874 -2.12132 2.12132 
C -1.55874 2.683901 -0.795609 3 0 3 
z
"/>
    </defs>
    <g clip-path="url(#p9412367df5)">
     <use xlink:href="#C0_0_e778755b44" x="92.290909" y="68.097677" style="fill: #1f77b4; stroke: #ffffff; stroke-width: 0.48"/>
    </g>
    <g clip-path="url(#p9412367df5)">
     <use xlink:href="#C0_0_e778755b44" x="92.290909" y="93.601748" style="fill: #ff7f0e; stroke: #ffffff; stroke-width: 0.48"/>
    </g>
    <g clip-path="url(#p9412367df5)">
     <use xlink:href="#C0_0_e778755b44" x="202.033101" y="120.971518" style="fill: #1f77b4; stroke: #ffffff; stroke-width: 0.48"/>
    </g>
    <g clip-path="url(#p9412367df5)">
     <use xlink:href="#C0_0_e778755b44" x="202.033101" y="177.860062" style="fill: #ff7f0e; stroke: #ffffff; stroke-width: 0.48"/>
    </g>
    <g clip-path="url(#p9412367df5)">
     <use xlink:href="#C0_0_e778755b44" x="264.724997" y="129.023056" style="fill: #1f77b4; stroke: #ffffff; stroke-width: 0.48"/>
    </g>
    <g clip-path="url(#p9412367df5)">
     <use xlink:href="#C0_0_e778755b44" x="264.724997" y="199.432869" style="fill: #ff7f0e; stroke: #ffffff; stroke-width: 0.48"/>
    </g>
    <g clip-path="url(#p9412367df5)">
     <use xlink:href="#C0_0_e778755b44" x="325.633493" y="106.838796" style="fill: #1f77b4; stroke: #ffffff; stroke-width: 0.48"/>
    </g>
    <g clip-path="url(#p9412367df5)">
     <use xlink:href="#C0_0_e778755b44" x="325.633493" y="209.443826" style="fill: #ff7f0e; stroke: #ffffff; stroke-width: 0.48"/>
    </g>
    <g clip-path="url(#p9412367df5)">
     <use xlink:href="#C0_0_e778755b44" x="325.633493" y="273.005086" style="fill: #2ca02c; stroke: #ffffff; stroke-width: 0.48"/>
    </g>
    <g clip-path="url(#p9412367df5)">
     <use xlink:href="#C0_0_e778755b44" x="369.138894" y="71.927944" style="fill: #1f77b4; stroke: #ffffff; stroke-width: 0.48"/>
    </g>
    <g clip-path="url(#p9412367df5)">
     <use xlink:href="#C0_0_e778755b44" x="369.138894" y="212.72274" style="fill: #ff7f0e; stroke: #ffffff; stroke-width: 0.48"/>
    </g>
    <g clip-path="url(#p9412367df5)">
     <use xlink:href="#C0_0_e778755b44" x="369.138894" y="286.274778" style="fill: #2ca02c; stroke: #ffffff; stroke-width: 0.48"/>
    </g>
    <g clip-path="url(#p9412367df5)">
     <use xlink:href="#C0_0_e778755b44" x="407.834514" y="208.008461" style="fill: #ff7f0e; stroke: #ffffff; stroke-width: 0.48"/>
    </g>
    <g clip-path="url(#p9412367df5)">
     <use xlink:href="#C0_0_e778755b44" x="407.834514" y="296.507184" style="fill: #2ca02c; stroke: #ffffff; stroke-width: 0.48"/>
    </g>
    <g clip-path="url(#p9412367df5)">
     <use xlink:href="#C0_0_e778755b44" x="439.854503" y="179.698807" style="fill: #ff7f0e; stroke: #ffffff; stroke-width: 0.48"/>
    </g>
    <g clip-path="url(#p9412367df5)">
     <use xlink:href="#C0_0_e778755b44" x="439.854503" y="285.768279" style="fill: #2ca02c; stroke: #ffffff; stroke-width: 0.48"/>
    </g>
    <g clip-path="url(#p9412367df5)">
     <use xlink:href="#C0_0_e778755b44" x="439.854503" y="362.803933" style="fill: #d62728; stroke: #ffffff; stroke-width: 0.48"/>
    </g>
    <g clip-path="url(#p9412367df5)">
     <use xlink:href="#C0_0_e778755b44" x="471.854809" y="130.28316" style="fill: #ff7f0e; stroke: #ffffff; stroke-width: 0.48"/>
    </g>
    <g clip-path="url(#p9412367df5)">
     <use xlink:href="#C0_0_e778755b44" x="471.854809" y="276.246359" style="fill: #2ca02c; stroke: #ffffff; stroke-width: 0.48"/>
    </g>
    <g clip-path="url(#p9412367df5)">
     <use xlink:href="#C0_0_e778755b44" x="471.854809" y="369.319934" style="fill: #d62728; stroke: #ffffff; stroke-width: 0.48"/>
    </g>
    <g clip-path="url(#p9412367df5)">
     <use xlink:href="#C0_0_e778755b44" x="498.109091" y="99.28584" style="fill: #ff7f0e; stroke: #ffffff; stroke-width: 0.48"/>
    </g>
    <g clip-path="url(#p9412367df5)">
     <use xlink:href="#C0_0_e778755b44" x="498.109091" y="264.111905" style="fill: #2ca02c; stroke: #ffffff; stroke-width: 0.48"/>
    </g>
    <g clip-path="url(#p9412367df5)">
     <use xlink:href="#C0_0_e778755b44" x="498.109091" y="366.345166" style="fill: #d62728; stroke: #ffffff; stroke-width: 0.48"/>
    </g>
   </g>
   <g id="PathCollection_2">
    <path d="M 230.154114 133.750124 
L 240.154114 123.750124 
M 230.154114 123.750124 
L 240.154114 133.750124 
" clip-path="url(#p9412367df5)" style="fill: #1f77b4; stroke: #1f77b4; stroke-width: 0.8"/>
    <path d="M 301.510936 221.897294 
L 311.510936 211.897294 
M 301.510936 211.897294 
L 311.510936 221.897294 
" clip-path="url(#p9412367df5)" style="fill: #ff7f0e; stroke: #ff7f0e; stroke-width: 0.8"/>
    <path d="M 398.517705 297.350007 
L 408.517705 287.350007 
M 398.517705 287.350007 
L 408.517705 297.350007 
" clip-path="url(#p9412367df5)" style="fill: #2ca02c; stroke: #2ca02c; stroke-width: 0.8"/>
    <path d="M 469.568587 374.36 
L 479.568587 364.36 
M 469.568587 364.36 
L 479.568587 374.36 
" clip-path="url(#p9412367df5)" style="fill: #d62728; stroke: #d62728; stroke-width: 0.8"/>
   </g>
   <g id="matplotlib.axis_1">
    <g id="xtick_1">
     <g id="line2d_1">
      <path d="M 101.051282 384.48 
L 101.051282 51.84 
" clip-path="url(#p9412367df5)" style="fill: none; stroke: #b0b0b0; stroke-opacity: 0.2; stroke-width: 0.8; stroke-linecap: square"/>
     </g>
     <g id="line2d_2">
      <defs>
       <path id="m6e440845fd" d="M 0 0 
L 0 3.5 
" style="stroke: #000000; stroke-width: 0.8"/>
      </defs>
      <g>
       <use xlink:href="#m6e440845fd" x="101.051282" y="384.48" style="stroke: #000000; stroke-width: 0.8"/>
      </g>
     </g>
     <g id="text_1">
      <!-- $\mathdefault{2^{20}}$ -->
      <g transform="translate(93.201282 399.078438) scale(0.1 -0.1)">
       <defs>
        <path id="DejaVuSans-32" d="M 1228 531 
L 3431 531 
L 3431 0 
L 469 0 
L 469 531 
Q 828 903 1448 1529 
Q 2069 2156 2228 2338 
Q 2531 2678 2651 2914 
Q 2772 3150 2772 3378 
Q 2772 3750 2511 3984 
Q 2250 4219 1831 4219 
Q 1534 4219 1204 4116 
Q 875 4013 500 3803 
L 500 4441 
Q 881 4594 1212 4672 
Q 1544 4750 1819 4750 
Q 2544 4750 2975 4387 
Q 3406 4025 3406 3419 
Q 3406 3131 3298 2873 
Q 3191 2616 2906 2266 
Q 2828 2175 2409 1742 
Q 1991 1309 1228 531 
z
" transform="scale(0.015625)"/>
        <path id="DejaVuSans-30" d="M 2034 4250 
Q 1547 4250 1301 3770 
Q 1056 3291 1056 2328 
Q 1056 1369 1301 889 
Q 1547 409 2034 409 
Q 2525 409 2770 889 
Q 3016 1369 3016 2328 
Q 3016 3291 2770 3770 
Q 2525 4250 2034 4250 
z
M 2034 4750 
Q 2819 4750 3233 4129 
Q 3647 3509 3647 2328 
Q 3647 1150 3233 529 
Q 2819 -91 2034 -91 
Q 1250 -91 836 529 
Q 422 1150 422 2328 
Q 422 3509 836 4129 
Q 1250 4750 2034 4750 
z
" transform="scale(0.015625)"/>
       </defs>
       <use xlink:href="#DejaVuSans-32" transform="translate(0 0.765625)"/>
       <use xlink:href="#DejaVuSans-32" transform="translate(64.580078 39.046875) scale(0.7)"/>
       <use xlink:href="#DejaVuSans-30" transform="translate(109.116211 39.046875) scale(0.7)"/>
      </g>
     </g>
    </g>
    <g id="xtick_2">
     <g id="line2d_3">
      <path d="M 158.550891 384.48 
L 158.550891 51.84 
" clip-path="url(#p9412367df5)" style="fill: none; stroke: #b0b0b0; stroke-opacity: 0.2; stroke-width: 0.8; stroke-linecap: square"/>
     </g>
     <g id="line2d_4">
      <g>
       <use xlink:href="#m6e440845fd" x="158.550891" y="384.48" style="stroke: #000000; stroke-width: 0.8"/>
      </g>
     </g>
     <g id="text_2">
      <!-- $\mathdefault{2^{21}}$ -->
      <g transform="translate(150.700891 399.078438) scale(0.1 -0.1)">
       <defs>
        <path id="DejaVuSans-31" d="M 794 531 
L 1825 531 
L 1825 4091 
L 703 3866 
L 703 4441 
L 1819 4666 
L 2450 4666 
L 2450 531 
L 3481 531 
L 3481 0 
L 794 0 
L 794 531 
z
" transform="scale(0.015625)"/>
       </defs>
       <use xlink:href="#DejaVuSans-32" transform="translate(0 0.765625)"/>
       <use xlink:href="#DejaVuSans-32" transform="translate(64.580078 39.046875) scale(0.7)"/>
       <use xlink:href="#DejaVuSans-31" transform="translate(109.116211 39.046875) scale(0.7)"/>
      </g>
     </g>
    </g>
    <g id="xtick_3">
     <g id="line2d_5">
      <path d="M 216.050499 384.48 
L 216.050499 51.84 
" clip-path="url(#p9412367df5)" style="fill: none; stroke: #b0b0b0; stroke-opacity: 0.2; stroke-width: 0.8; stroke-linecap: square"/>
     </g>
     <g id="line2d_6">
      <g>
       <use xlink:href="#m6e440845fd" x="216.050499" y="384.48" style="stroke: #000000; stroke-width: 0.8"/>
      </g>
     </g>
     <g id="text_3">
      <!-- $\mathdefault{2^{22}}$ -->
      <g transform="translate(208.200499 399.078438) scale(0.1 -0.1)">
       <use xlink:href="#DejaVuSans-32" transform="translate(0 0.765625)"/>
       <use xlink:href="#DejaVuSans-32" transform="translate(64.580078 39.046875) scale(0.7)"/>
       <use xlink:href="#DejaVuSans-32" transform="translate(109.116211 39.046875) scale(0.7)"/>
      </g>
     </g>
    </g>
    <g id="xtick_4">
     <g id="line2d_7">
      <path d="M 273.550107 384.48 
L 273.550107 51.84 
" clip-path="url(#p9412367df5)" style="fill: none; stroke: #b0b0b0; stroke-opacity: 0.2; stroke-width: 0.8; stroke-linecap: square"/>
     </g>
     <g id="line2d_8">
      <g>
       <use xlink:href="#m6e440845fd" x="273.550107" y="384.48" style="stroke: #000000; stroke-width: 0.8"/>
      </g>
     </g>
     <g id="text_4">
      <!-- $\mathdefault{2^{23}}$ -->
      <g transform="translate(265.700107 399.078438) scale(0.1 -0.1)">
       <defs>
        <path id="DejaVuSans-33" d="M 2597 2516 
Q 3050 2419 3304 2112 
Q 3559 1806 3559 1356 
Q 3559 666 3084 287 
Q 2609 -91 1734 -91 
Q 1441 -91 1130 -33 
Q 819 25 488 141 
L 488 750 
Q 750 597 1062 519 
Q 1375 441 1716 441 
Q 2309 441 2620 675 
Q 2931 909 2931 1356 
Q 2931 1769 2642 2001 
Q 2353 2234 1838 2234 
L 1294 2234 
L 1294 2753 
L 1863 2753 
Q 2328 2753 2575 2939 
Q 2822 3125 2822 3475 
Q 2822 3834 2567 4026 
Q 2313 4219 1838 4219 
Q 1578 4219 1281 4162 
Q 984 4106 628 3988 
L 628 4550 
Q 988 4650 1302 4700 
Q 1616 4750 1894 4750 
Q 2613 4750 3031 4423 
Q 3450 4097 3450 3541 
Q 3450 3153 3228 2886 
Q 3006 2619 2597 2516 
z
" transform="scale(0.015625)"/>
       </defs>
       <use xlink:href="#DejaVuSans-32" transform="translate(0 0.765625)"/>
       <use xlink:href="#DejaVuSans-32" transform="translate(64.580078 39.046875) scale(0.7)"/>
       <use xlink:href="#DejaVuSans-33" transform="translate(109.116211 39.046875) scale(0.7)"/>
      </g>
     </g>
    </g>
    <g id="xtick_5">
     <g id="line2d_9">
      <path d="M 331.049716 384.48 
L 331.049716 51.84 
" clip-path="url(#p9412367df5)" style="fill: none; stroke: #b0b0b0; stroke-opacity: 0.2; stroke-width: 0.8; stroke-linecap: square"/>
     </g>
     <g id="line2d_10">
      <g>
       <use xlink:href="#m6e440845fd" x="331.049716" y="384.48" style="stroke: #000000; stroke-width: 0.8"/>
      </g>
     </g>
     <g id="text_5">
      <!-- $\mathdefault{2^{24}}$ -->
      <g transform="translate(323.199716 399.078438) scale(0.1 -0.1)">
       <defs>
        <path id="DejaVuSans-34" d="M 2419 4116 
L 825 1625 
L 2419 1625 
L 2419 4116 
z
M 2253 4666 
L 3047 4666 
L 3047 1625 
L 3713 1625 
L 3713 1100 
L 3047 1100 
L 3047 0 
L 2419 0 
L 2419 1100 
L 313 1100 
L 313 1709 
L 2253 4666 
z
" transform="scale(0.015625)"/>
       </defs>
       <use xlink:href="#DejaVuSans-32" transform="translate(0 0.765625)"/>
       <use xlink:href="#DejaVuSans-32" transform="translate(64.580078 39.046875) scale(0.7)"/>
       <use xlink:href="#DejaVuSans-34" transform="translate(109.116211 39.046875) scale(0.7)"/>
      </g>
     </g>
    </g>
    <g id="xtick_6">
     <g id="line2d_11">
      <path d="M 388.549324 384.48 
L 388.549324 51.84 
" clip-path="url(#p9412367df5)" style="fill: none; stroke: #b0b0b0; stroke-opacity: 0.2; stroke-width: 0.8; stroke-linecap: square"/>
     </g>
     <g id="line2d_12">
      <g>
       <use xlink:href="#m6e440845fd" x="388.549324" y="384.48" style="stroke: #000000; stroke-width: 0.8"/>
      </g>
     </g>
     <g id="text_6">
      <!-- $\mathdefault{2^{25}}$ -->
      <g transform="translate(380.699324 399.078438) scale(0.1 -0.1)">
       <defs>
        <path id="DejaVuSans-35" d="M 691 4666 
L 3169 4666 
L 3169 4134 
L 1269 4134 
L 1269 2991 
Q 1406 3038 1543 3061 
Q 1681 3084 1819 3084 
Q 2600 3084 3056 2656 
Q 3513 2228 3513 1497 
Q 3513 744 3044 326 
Q 2575 -91 1722 -91 
Q 1428 -91 1123 -41 
Q 819 9 494 109 
L 494 744 
Q 775 591 1075 516 
Q 1375 441 1709 441 
Q 2250 441 2565 725 
Q 2881 1009 2881 1497 
Q 2881 1984 2565 2268 
Q 2250 2553 1709 2553 
Q 1456 2553 1204 2497 
Q 953 2441 691 2322 
L 691 4666 
z
" transform="scale(0.015625)"/>
       </defs>
       <use xlink:href="#DejaVuSans-32" transform="translate(0 0.765625)"/>
       <use xlink:href="#DejaVuSans-32" transform="translate(64.580078 39.046875) scale(0.7)"/>
       <use xlink:href="#DejaVuSans-35" transform="translate(109.116211 39.046875) scale(0.7)"/>
      </g>
     </g>
    </g>
    <g id="xtick_7">
     <g id="line2d_13">
      <path d="M 446.048932 384.48 
L 446.048932 51.84 
" clip-path="url(#p9412367df5)" style="fill: none; stroke: #b0b0b0; stroke-opacity: 0.2; stroke-width: 0.8; stroke-linecap: square"/>
     </g>
     <g id="line2d_14">
      <g>
       <use xlink:href="#m6e440845fd" x="446.048932" y="384.48" style="stroke: #000000; stroke-width: 0.8"/>
      </g>
     </g>
     <g id="text_7">
      <!-- $\mathdefault{2^{26}}$ -->
      <g transform="translate(438.198932 399.078438) scale(0.1 -0.1)">
       <defs>
        <path id="DejaVuSans-36" d="M 2113 2584 
Q 1688 2584 1439 2293 
Q 1191 2003 1191 1497 
Q 1191 994 1439 701 
Q 1688 409 2113 409 
Q 2538 409 2786 701 
Q 3034 994 3034 1497 
Q 3034 2003 2786 2293 
Q 2538 2584 2113 2584 
z
M 3366 4563 
L 3366 3988 
Q 3128 4100 2886 4159 
Q 2644 4219 2406 4219 
Q 1781 4219 1451 3797 
Q 1122 3375 1075 2522 
Q 1259 2794 1537 2939 
Q 1816 3084 2150 3084 
Q 2853 3084 3261 2657 
Q 3669 2231 3669 1497 
Q 3669 778 3244 343 
Q 2819 -91 2113 -91 
Q 1303 -91 875 529 
Q 447 1150 447 2328 
Q 447 3434 972 4092 
Q 1497 4750 2381 4750 
Q 2619 4750 2861 4703 
Q 3103 4656 3366 4563 
z
" transform="scale(0.015625)"/>
       </defs>
       <use xlink:href="#DejaVuSans-32" transform="translate(0 0.765625)"/>
       <use xlink:href="#DejaVuSans-32" transform="translate(64.580078 39.046875) scale(0.7)"/>
       <use xlink:href="#DejaVuSans-36" transform="translate(109.116211 39.046875) scale(0.7)"/>
      </g>
     </g>
    </g>
    <g id="xtick_8">
     <g id="line2d_15">
      <path d="M 503.548541 384.48 
L 503.548541 51.84 
" clip-path="url(#p9412367df5)" style="fill: none; stroke: #b0b0b0; stroke-opacity: 0.2; stroke-width: 0.8; stroke-linecap: square"/>
     </g>
     <g id="line2d_16">
      <g>
       <use xlink:href="#m6e440845fd" x="503.548541" y="384.48" style="stroke: #000000; stroke-width: 0.8"/>
      </g>
     </g>
     <g id="text_8">
      <!-- $\mathdefault{2^{27}}$ -->
      <g transform="translate(495.698541 399.078438) scale(0.1 -0.1)">
       <defs>
        <path id="DejaVuSans-37" d="M 525 4666 
L 3525 4666 
L 3525 4397 
L 1831 0 
L 1172 0 
L 2766 4134 
L 525 4134 
L 525 4666 
z
" transform="scale(0.015625)"/>
       </defs>
       <use xlink:href="#DejaVuSans-32" transform="translate(0 0.765625)"/>
       <use xlink:href="#DejaVuSans-32" transform="translate(64.580078 39.046875) scale(0.7)"/>
       <use xlink:href="#DejaVuSans-37" transform="translate(109.116211 39.046875) scale(0.7)"/>
      </g>
     </g>
    </g>
    <g id="text_9">
     <!-- Parameters -->
     <g transform="translate(266.582812 412.756563) scale(0.1 -0.1)">
      <defs>
       <path id="DejaVuSans-50" d="M 1259 4147 
L 1259 2394 
L 2053 2394 
Q 2494 2394 2734 2622 
Q 2975 2850 2975 3272 
Q 2975 3691 2734 3919 
Q 2494 4147 2053 4147 
L 1259 4147 
z
M 628 4666 
L 2053 4666 
Q 2838 4666 3239 4311 
Q 3641 3956 3641 3272 
Q 3641 2581 3239 2228 
Q 2838 1875 2053 1875 
L 1259 1875 
L 1259 0 
L 628 0 
L 628 4666 
z
" transform="scale(0.015625)"/>
       <path id="DejaVuSans-61" d="M 2194 1759 
Q 1497 1759 1228 1600 
Q 959 1441 959 1056 
Q 959 750 1161 570 
Q 1363 391 1709 391 
Q 2188 391 2477 730 
Q 2766 1069 2766 1631 
L 2766 1759 
L 2194 1759 
z
M 3341 1997 
L 3341 0 
L 2766 0 
L 2766 531 
Q 2569 213 2275 61 
Q 1981 -91 1556 -91 
Q 1019 -91 701 211 
Q 384 513 384 1019 
Q 384 1609 779 1909 
Q 1175 2209 1959 2209 
L 2766 2209 
L 2766 2266 
Q 2766 2663 2505 2880 
Q 2244 3097 1772 3097 
Q 1472 3097 1187 3025 
Q 903 2953 641 2809 
L 641 3341 
Q 956 3463 1253 3523 
Q 1550 3584 1831 3584 
Q 2591 3584 2966 3190 
Q 3341 2797 3341 1997 
z
" transform="scale(0.015625)"/>
       <path id="DejaVuSans-72" d="M 2631 2963 
Q 2534 3019 2420 3045 
Q 2306 3072 2169 3072 
Q 1681 3072 1420 2755 
Q 1159 2438 1159 1844 
L 1159 0 
L 581 0 
L 581 3500 
L 1159 3500 
L 1159 2956 
Q 1341 3275 1631 3429 
Q 1922 3584 2338 3584 
Q 2397 3584 2469 3576 
Q 2541 3569 2628 3553 
L 2631 2963 
z
" transform="scale(0.015625)"/>
       <path id="DejaVuSans-6d" d="M 3328 2828 
Q 3544 3216 3844 3400 
Q 4144 3584 4550 3584 
Q 5097 3584 5394 3201 
Q 5691 2819 5691 2113 
L 5691 0 
L 5113 0 
L 5113 2094 
Q 5113 2597 4934 2840 
Q 4756 3084 4391 3084 
Q 3944 3084 3684 2787 
Q 3425 2491 3425 1978 
L 3425 0 
L 2847 0 
L 2847 2094 
Q 2847 2600 2669 2842 
Q 2491 3084 2119 3084 
Q 1678 3084 1418 2786 
Q 1159 2488 1159 1978 
L 1159 0 
L 581 0 
L 581 3500 
L 1159 3500 
L 1159 2956 
Q 1356 3278 1631 3431 
Q 1906 3584 2284 3584 
Q 2666 3584 2933 3390 
Q 3200 3197 3328 2828 
z
" transform="scale(0.015625)"/>
       <path id="DejaVuSans-65" d="M 3597 1894 
L 3597 1613 
L 953 1613 
Q 991 1019 1311 708 
Q 1631 397 2203 397 
Q 2534 397 2845 478 
Q 3156 559 3463 722 
L 3463 178 
Q 3153 47 2828 -22 
Q 2503 -91 2169 -91 
Q 1331 -91 842 396 
Q 353 884 353 1716 
Q 353 2575 817 3079 
Q 1281 3584 2069 3584 
Q 2775 3584 3186 3129 
Q 3597 2675 3597 1894 
z
M 3022 2063 
Q 3016 2534 2758 2815 
Q 2500 3097 2075 3097 
Q 1594 3097 1305 2825 
Q 1016 2553 972 2059 
L 3022 2063 
z
" transform="scale(0.015625)"/>
       <path id="DejaVuSans-74" d="M 1172 4494 
L 1172 3500 
L 2356 3500 
L 2356 3053 
L 1172 3053 
L 1172 1153 
Q 1172 725 1289 603 
Q 1406 481 1766 481 
L 2356 481 
L 2356 0 
L 1766 0 
Q 1100 0 847 248 
Q 594 497 594 1153 
L 594 3053 
L 172 3053 
L 172 3500 
L 594 3500 
L 594 4494 
L 1172 4494 
z
" transform="scale(0.015625)"/>
       <path id="DejaVuSans-73" d="M 2834 3397 
L 2834 2853 
Q 2591 2978 2328 3040 
Q 2066 3103 1784 3103 
Q 1356 3103 1142 2972 
Q 928 2841 928 2578 
Q 928 2378 1081 2264 
Q 1234 2150 1697 2047 
L 1894 2003 
Q 2506 1872 2764 1633 
Q 3022 1394 3022 966 
Q 3022 478 2636 193 
Q 2250 -91 1575 -91 
Q 1294 -91 989 -36 
Q 684 19 347 128 
L 347 722 
Q 666 556 975 473 
Q 1284 391 1588 391 
Q 1994 391 2212 530 
Q 2431 669 2431 922 
Q 2431 1156 2273 1281 
Q 2116 1406 1581 1522 
L 1381 1569 
Q 847 1681 609 1914 
Q 372 2147 372 2553 
Q 372 3047 722 3315 
Q 1072 3584 1716 3584 
Q 2034 3584 2315 3537 
Q 2597 3491 2834 3397 
z
" transform="scale(0.015625)"/>
      </defs>
      <use xlink:href="#DejaVuSans-50"/>
      <use xlink:href="#DejaVuSans-61" transform="translate(55.802734 0)"/>
      <use xlink:href="#DejaVuSans-72" transform="translate(117.082031 0)"/>
      <use xlink:href="#DejaVuSans-61" transform="translate(158.195312 0)"/>
      <use xlink:href="#DejaVuSans-6d" transform="translate(219.474609 0)"/>
      <use xlink:href="#DejaVuSans-65" transform="translate(316.886719 0)"/>
      <use xlink:href="#DejaVuSans-74" transform="translate(378.410156 0)"/>
      <use xlink:href="#DejaVuSans-65" transform="translate(417.619141 0)"/>
      <use xlink:href="#DejaVuSans-72" transform="translate(479.142578 0)"/>
      <use xlink:href="#DejaVuSans-73" transform="translate(520.255859 0)"/>
     </g>
    </g>
   </g>
   <g id="matplotlib.axis_2">
    <g id="ytick_1">
     <g id="line2d_17">
      <path d="M 72 320.848173 
L 518.4 320.848173 
" clip-path="url(#p9412367df5)" style="fill: none; stroke: #b0b0b0; stroke-opacity: 0.2; stroke-width: 0.8; stroke-linecap: square"/>
     </g>
     <g id="line2d_18">
      <defs>
       <path id="m29b2db313b" d="M 0 0 
L -3.5 0 
" style="stroke: #000000; stroke-width: 0.8"/>
      </defs>
      <g>
       <use xlink:href="#m29b2db313b" x="72" y="320.848173" style="stroke: #000000; stroke-width: 0.8"/>
      </g>
     </g>
     <g id="text_10">
      <!-- 3.4 -->
      <g transform="translate(49.096875 324.647392) scale(0.1 -0.1)">
       <defs>
        <path id="DejaVuSans-2e" d="M 684 794 
L 1344 794 
L 1344 0 
L 684 0 
L 684 794 
z
" transform="scale(0.015625)"/>
       </defs>
       <use xlink:href="#DejaVuSans-33"/>
       <use xlink:href="#DejaVuSans-2e" transform="translate(63.623047 0)"/>
       <use xlink:href="#DejaVuSans-34" transform="translate(95.410156 0)"/>
      </g>
     </g>
    </g>
    <g id="ytick_2">
     <g id="line2d_19">
      <path d="M 72 250.267806 
L 518.4 250.267806 
" clip-path="url(#p9412367df5)" style="fill: none; stroke: #b0b0b0; stroke-opacity: 0.2; stroke-width: 0.8; stroke-linecap: square"/>
     </g>
     <g id="line2d_20">
      <g>
       <use xlink:href="#m29b2db313b" x="72" y="250.267806" style="stroke: #000000; stroke-width: 0.8"/>
      </g>
     </g>
     <g id="text_11">
      <!-- 3.6 -->
      <g transform="translate(49.096875 254.067025) scale(0.1 -0.1)">
       <use xlink:href="#DejaVuSans-33"/>
       <use xlink:href="#DejaVuSans-2e" transform="translate(63.623047 0)"/>
       <use xlink:href="#DejaVuSans-36" transform="translate(95.410156 0)"/>
      </g>
     </g>
    </g>
    <g id="ytick_3">
     <g id="line2d_21">
      <path d="M 72 179.687439 
L 518.4 179.687439 
" clip-path="url(#p9412367df5)" style="fill: none; stroke: #b0b0b0; stroke-opacity: 0.2; stroke-width: 0.8; stroke-linecap: square"/>
     </g>
     <g id="line2d_22">
      <g>
       <use xlink:href="#m29b2db313b" x="72" y="179.687439" style="stroke: #000000; stroke-width: 0.8"/>
      </g>
     </g>
     <g id="text_12">
      <!-- 3.8 -->
      <g transform="translate(49.096875 183.486658) scale(0.1 -0.1)">
       <defs>
        <path id="DejaVuSans-38" d="M 2034 2216 
Q 1584 2216 1326 1975 
Q 1069 1734 1069 1313 
Q 1069 891 1326 650 
Q 1584 409 2034 409 
Q 2484 409 2743 651 
Q 3003 894 3003 1313 
Q 3003 1734 2745 1975 
Q 2488 2216 2034 2216 
z
M 1403 2484 
Q 997 2584 770 2862 
Q 544 3141 544 3541 
Q 544 4100 942 4425 
Q 1341 4750 2034 4750 
Q 2731 4750 3128 4425 
Q 3525 4100 3525 3541 
Q 3525 3141 3298 2862 
Q 3072 2584 2669 2484 
Q 3125 2378 3379 2068 
Q 3634 1759 3634 1313 
Q 3634 634 3220 271 
Q 2806 -91 2034 -91 
Q 1263 -91 848 271 
Q 434 634 434 1313 
Q 434 1759 690 2068 
Q 947 2378 1403 2484 
z
M 1172 3481 
Q 1172 3119 1398 2916 
Q 1625 2713 2034 2713 
Q 2441 2713 2670 2916 
Q 2900 3119 2900 3481 
Q 2900 3844 2670 4047 
Q 2441 4250 2034 4250 
Q 1625 4250 1398 4047 
Q 1172 3844 1172 3481 
z
" transform="scale(0.015625)"/>
       </defs>
       <use xlink:href="#DejaVuSans-33"/>
       <use xlink:href="#DejaVuSans-2e" transform="translate(63.623047 0)"/>
       <use xlink:href="#DejaVuSans-38" transform="translate(95.410156 0)"/>
      </g>
     </g>
    </g>
    <g id="ytick_4">
     <g id="line2d_23">
      <path d="M 72 109.107072 
L 518.4 109.107072 
" clip-path="url(#p9412367df5)" style="fill: none; stroke: #b0b0b0; stroke-opacity: 0.2; stroke-width: 0.8; stroke-linecap: square"/>
     </g>
     <g id="line2d_24">
      <g>
       <use xlink:href="#m29b2db313b" x="72" y="109.107072" style="stroke: #000000; stroke-width: 0.8"/>
      </g>
     </g>
     <g id="text_13">
      <!-- 4.0 -->
      <g transform="translate(49.096875 112.906291) scale(0.1 -0.1)">
       <use xlink:href="#DejaVuSans-34"/>
       <use xlink:href="#DejaVuSans-2e" transform="translate(63.623047 0)"/>
       <use xlink:href="#DejaVuSans-30" transform="translate(95.410156 0)"/>
      </g>
     </g>
    </g>
    <g id="text_14">
     <!-- Validation Loss -->
     <g transform="translate(43.017187 255.406875) rotate(-90) scale(0.1 -0.1)">
      <defs>
       <path id="DejaVuSans-56" d="M 1831 0 
L 50 4666 
L 709 4666 
L 2188 738 
L 3669 4666 
L 4325 4666 
L 2547 0 
L 1831 0 
z
" transform="scale(0.015625)"/>
       <path id="DejaVuSans-6c" d="M 603 4863 
L 1178 4863 
L 1178 0 
L 603 0 
L 603 4863 
z
" transform="scale(0.015625)"/>
       <path id="DejaVuSans-69" d="M 603 3500 
L 1178 3500 
L 1178 0 
L 603 0 
L 603 3500 
z
M 603 4863 
L 1178 4863 
L 1178 4134 
L 603 4134 
L 603 4863 
z
" transform="scale(0.015625)"/>
       <path id="DejaVuSans-64" d="M 2906 2969 
L 2906 4863 
L 3481 4863 
L 3481 0 
L 2906 0 
L 2906 525 
Q 2725 213 2448 61 
Q 2172 -91 1784 -91 
Q 1150 -91 751 415 
Q 353 922 353 1747 
Q 353 2572 751 3078 
Q 1150 3584 1784 3584 
Q 2172 3584 2448 3432 
Q 2725 3281 2906 2969 
z
M 947 1747 
Q 947 1113 1208 752 
Q 1469 391 1925 391 
Q 2381 391 2643 752 
Q 2906 1113 2906 1747 
Q 2906 2381 2643 2742 
Q 2381 3103 1925 3103 
Q 1469 3103 1208 2742 
Q 947 2381 947 1747 
z
" transform="scale(0.015625)"/>
       <path id="DejaVuSans-6f" d="M 1959 3097 
Q 1497 3097 1228 2736 
Q 959 2375 959 1747 
Q 959 1119 1226 758 
Q 1494 397 1959 397 
Q 2419 397 2687 759 
Q 2956 1122 2956 1747 
Q 2956 2369 2687 2733 
Q 2419 3097 1959 3097 
z
M 1959 3584 
Q 2709 3584 3137 3096 
Q 3566 2609 3566 1747 
Q 3566 888 3137 398 
Q 2709 -91 1959 -91 
Q 1206 -91 779 398 
Q 353 888 353 1747 
Q 353 2609 779 3096 
Q 1206 3584 1959 3584 
z
" transform="scale(0.015625)"/>
       <path id="DejaVuSans-6e" d="M 3513 2113 
L 3513 0 
L 2938 0 
L 2938 2094 
Q 2938 2591 2744 2837 
Q 2550 3084 2163 3084 
Q 1697 3084 1428 2787 
Q 1159 2491 1159 1978 
L 1159 0 
L 581 0 
L 581 3500 
L 1159 3500 
L 1159 2956 
Q 1366 3272 1645 3428 
Q 1925 3584 2291 3584 
Q 2894 3584 3203 3211 
Q 3513 2838 3513 2113 
z
" transform="scale(0.015625)"/>
       <path id="DejaVuSans-20" transform="scale(0.015625)"/>
       <path id="DejaVuSans-4c" d="M 628 4666 
L 1259 4666 
L 1259 531 
L 3531 531 
L 3531 0 
L 628 0 
L 628 4666 
z
" transform="scale(0.015625)"/>
      </defs>
      <use xlink:href="#DejaVuSans-56"/>
      <use xlink:href="#DejaVuSans-61" transform="translate(60.658203 0)"/>
      <use xlink:href="#DejaVuSans-6c" transform="translate(121.9375 0)"/>
      <use xlink:href="#DejaVuSans-69" transform="translate(149.720703 0)"/>
      <use xlink:href="#DejaVuSans-64" transform="translate(177.503906 0)"/>
      <use xlink:href="#DejaVuSans-61" transform="translate(240.980469 0)"/>
      <use xlink:href="#DejaVuSans-74" transform="translate(302.259766 0)"/>
      <use xlink:href="#DejaVuSans-69" transform="translate(341.46875 0)"/>
      <use xlink:href="#DejaVuSans-6f" transform="translate(369.251953 0)"/>
      <use xlink:href="#DejaVuSans-6e" transform="translate(430.433594 0)"/>
      <use xlink:href="#DejaVuSans-20" transform="translate(493.8125 0)"/>
      <use xlink:href="#DejaVuSans-4c" transform="translate(525.599609 0)"/>
      <use xlink:href="#DejaVuSans-6f" transform="translate(579.5625 0)"/>
      <use xlink:href="#DejaVuSans-73" transform="translate(640.744141 0)"/>
      <use xlink:href="#DejaVuSans-73" transform="translate(692.84375 0)"/>
     </g>
    </g>
   </g>
   <g id="line2d_25"/>
   <g id="line2d_26"/>
   <g id="line2d_27"/>
   <g id="line2d_28"/>
   <g id="line2d_29">
    <path d="M 92.290909 66.96 
L 95.087353 69.355319 
L 97.883798 71.703288 
L 100.680242 74.003908 
L 103.476686 76.257177 
L 106.273131 78.463096 
L 109.069575 80.621665 
L 111.866019 82.732883 
L 114.662463 84.796752 
L 117.458908 86.813271 
L 120.255352 88.78244 
L 123.051796 90.704258 
L 125.848241 92.578727 
L 128.644685 94.405845 
L 131.441129 96.185613 
L 134.237573 97.918032 
L 137.034018 99.6031 
L 139.830462 101.240818 
L 142.626906 102.831186 
L 145.423351 104.374204 
L 148.219795 105.869872 
L 151.016239 107.31819 
L 153.812683 108.719158 
L 156.609128 110.072775 
L 159.405572 111.379043 
L 162.202016 112.637961 
L 164.998461 113.849528 
L 167.794905 115.013746 
L 170.591349 116.130613 
L 173.387793 117.20013 
L 176.184238 118.222298 
L 178.980682 119.197115 
L 181.777126 120.124582 
L 184.573571 121.004699 
L 187.370015 121.837466 
L 190.166459 122.622883 
L 192.962903 123.360949 
L 195.759348 124.051666 
L 198.555792 124.695033 
L 201.352236 125.291049 
L 204.148681 125.839716 
L 206.945125 126.341032 
L 209.741569 126.794999 
L 212.538013 127.201615 
L 215.334458 127.560881 
L 218.130902 127.872798 
L 220.927346 128.137364 
L 223.723791 128.35458 
L 226.520235 128.524446 
L 229.316679 128.646962 
L 232.113123 128.722127 
L 234.909568 128.749943 
L 237.706012 128.730409 
L 240.502456 128.663524 
L 243.298901 128.54929 
L 246.095345 128.387705 
L 248.891789 128.178771 
L 251.688233 127.922486 
L 254.484678 127.618851 
L 257.281122 127.267867 
L 260.077566 126.869532 
L 262.874011 126.423847 
L 265.670455 125.930812 
L 268.466899 125.390427 
L 271.263343 124.802692 
L 274.059788 124.167606 
L 276.856232 123.485171 
L 279.652676 122.755386 
L 282.449121 121.97825 
L 285.245565 121.153765 
L 288.042009 120.281929 
L 290.838453 119.362743 
L 293.634898 118.396208 
L 296.431342 117.382322 
L 299.227786 116.321086 
L 302.024231 115.2125 
L 304.820675 114.056564 
L 307.617119 112.853278 
L 310.413564 111.602642 
L 313.210008 110.304656 
L 316.006452 108.959319 
L 318.802896 107.566633 
L 321.599341 106.126597 
L 324.395785 104.63921 
L 327.192229 103.104474 
L 329.988674 101.522387 
L 332.785118 99.89295 
L 335.581562 98.216163 
L 338.378006 96.492027 
L 341.174451 94.72054 
L 343.970895 92.901703 
L 346.767339 91.035516 
L 349.563784 89.121979 
L 352.360228 87.161091 
L 355.156672 85.152854 
L 357.953116 83.097267 
L 360.749561 80.994329 
L 363.546005 78.844042 
L 366.342449 76.646404 
L 369.138894 74.401417 
" clip-path="url(#p9412367df5)" style="fill: none; stroke: #1f77b4; stroke-width: 1.5; stroke-linecap: square"/>
   </g>
   <g id="line2d_30">
    <path d="M 92.290909 86.059032 
L 96.390083 91.018394 
L 100.489256 95.88194 
L 104.58843 100.649671 
L 108.687603 105.321585 
L 112.786777 109.897684 
L 116.88595 114.377967 
L 120.985124 118.762434 
L 125.084298 123.051085 
L 129.183471 127.24392 
L 133.282645 131.34094 
L 137.381818 135.342143 
L 141.480992 139.247531 
L 145.580165 143.057103 
L 149.679339 146.77086 
L 153.778512 150.3888 
L 157.877686 153.910925 
L 161.97686 157.337233 
L 166.076033 160.667726 
L 170.175207 163.902404 
L 174.27438 167.041265 
L 178.373554 170.08431 
L 182.472727 173.03154 
L 186.571901 175.882954 
L 190.671074 178.638552 
L 194.770248 181.298334 
L 198.869421 183.8623 
L 202.968595 186.330451 
L 207.067769 188.702786 
L 211.166942 190.979305 
L 215.266116 193.160008 
L 219.365289 195.244895 
L 223.464463 197.233966 
L 227.563636 199.127222 
L 231.66281 200.924662 
L 235.761983 202.626286 
L 239.861157 204.232094 
L 243.960331 205.742086 
L 248.059504 207.156263 
L 252.158678 208.474623 
L 256.257851 209.697168 
L 260.357025 210.823897 
L 264.456198 211.85481 
L 268.555372 212.789908 
L 272.654545 213.629189 
L 276.753719 214.372655 
L 280.852893 215.020305 
L 284.952066 215.572139 
L 289.05124 216.028157 
L 293.150413 216.38836 
L 297.249587 216.652746 
L 301.34876 216.821317 
L 305.447934 216.894072 
L 309.547107 216.871011 
L 313.646281 216.752135 
L 317.745455 216.537442 
L 321.844628 216.226934 
L 325.943802 215.82061 
L 330.042975 215.31847 
L 334.142149 214.720514 
L 338.241322 214.026742 
L 342.340496 213.237155 
L 346.439669 212.351752 
L 350.538843 211.370533 
L 354.638017 210.293498 
L 358.73719 209.120647 
L 362.836364 207.85198 
L 366.935537 206.487498 
L 371.034711 205.0272 
L 375.133884 203.471086 
L 379.233058 201.819156 
L 383.332231 200.07141 
L 387.431405 198.227849 
L 391.530579 196.288472 
L 395.629752 194.253279 
L 399.728926 192.12227 
L 403.828099 189.895445 
L 407.927273 187.572804 
L 412.026446 185.154348 
L 416.12562 182.640076 
L 420.224793 180.029987 
L 424.323967 177.324084 
L 428.42314 174.522364 
L 432.522314 171.624828 
L 436.621488 168.631477 
L 440.720661 165.54231 
L 444.819835 162.357327 
L 448.919008 159.076528 
L 453.018182 155.699913 
L 457.117355 152.227483 
L 461.216529 148.659237 
L 465.315702 144.995174 
L 469.414876 141.235297 
L 473.51405 137.379603 
L 477.613223 133.428093 
L 481.712397 129.380768 
L 485.81157 125.237627 
L 489.910744 120.99867 
L 494.009917 116.663897 
L 498.109091 112.233308 
" clip-path="url(#p9412367df5)" style="fill: none; stroke: #ff7f0e; stroke-width: 1.5; stroke-linecap: square"/>
   </g>
   <g id="line2d_31">
    <path d="M 325.633493 272.629564 
L 327.37567 273.501943 
L 329.117848 274.354587 
L 330.860026 275.187496 
L 332.602204 276.00067 
L 334.344381 276.794109 
L 336.086559 277.567814 
L 337.828737 278.321784 
L 339.570915 279.056019 
L 341.313093 279.770519 
L 343.05527 280.465284 
L 344.797448 281.140315 
L 346.539626 281.795611 
L 348.281804 282.431171 
L 350.023981 283.046998 
L 351.766159 283.643089 
L 353.508337 284.219446 
L 355.250515 284.776067 
L 356.992692 285.312954 
L 358.73487 285.830107 
L 360.477048 286.327524 
L 362.219226 286.805207 
L 363.961403 287.263154 
L 365.703581 287.701367 
L 367.445759 288.119845 
L 369.187937 288.518589 
L 370.930114 288.897597 
L 372.672292 289.256871 
L 374.41447 289.59641 
L 376.156648 289.916214 
L 377.898825 290.216284 
L 379.641003 290.496618 
L 381.383181 290.757218 
L 383.125359 290.998083 
L 384.867537 291.219213 
L 386.609714 291.420609 
L 388.351892 291.602269 
L 390.09407 291.764195 
L 391.836248 291.906386 
L 393.578425 292.028842 
L 395.320603 292.131564 
L 397.062781 292.21455 
L 398.804959 292.277802 
L 400.547136 292.321319 
L 402.289314 292.345101 
L 404.031492 292.349149 
L 405.77367 292.333461 
L 407.515847 292.298039 
L 409.258025 292.242882 
L 411.000203 292.16799 
L 412.742381 292.073364 
L 414.484558 291.959002 
L 416.226736 291.824906 
L 417.968914 291.671075 
L 419.711092 291.497509 
L 421.453269 291.304209 
L 423.195447 291.091173 
L 424.937625 290.858403 
L 426.679803 290.605898 
L 428.421981 290.333658 
L 430.164158 290.041684 
L 431.906336 289.729974 
L 433.648514 289.39853 
L 435.390692 289.047351 
L 437.132869 288.676437 
L 438.875047 288.285789 
L 440.617225 287.875405 
L 442.359403 287.445287 
L 444.10158 286.995434 
L 445.843758 286.525846 
L 447.585936 286.036524 
L 449.328114 285.527466 
L 451.070291 284.998674 
L 452.812469 284.450147 
L 454.554647 283.881885 
L 456.296825 283.293889 
L 458.039002 282.686157 
L 459.78118 282.058691 
L 461.523358 281.41149 
L 463.265536 280.744555 
L 465.007713 280.057884 
L 466.749891 279.351479 
L 468.492069 278.625338 
L 470.234247 277.879463 
L 471.976425 277.113854 
L 473.718602 276.328509 
L 475.46078 275.52343 
L 477.202958 274.698616 
L 478.945136 273.854067 
L 480.687313 272.989783 
L 482.429491 272.105764 
L 484.171669 271.202011 
L 485.913847 270.278523 
L 487.656024 269.3353 
L 489.398202 268.372342 
L 491.14038 267.389649 
L 492.882558 266.387222 
L 494.624735 265.36506 
L 496.366913 264.323163 
L 498.109091 263.261531 
" clip-path="url(#p9412367df5)" style="fill: none; stroke: #2ca02c; stroke-width: 1.5; stroke-linecap: square"/>
   </g>
   <g id="line2d_32">
    <path d="M 439.854503 362.803933 
L 440.442933 363.024309 
L 441.031363 363.240919 
L 441.619793 363.453761 
L 442.208224 363.662835 
L 442.796654 363.868142 
L 443.385084 364.069682 
L 443.973514 364.267454 
L 444.561944 364.461458 
L 445.150375 364.651695 
L 445.738805 364.838165 
L 446.327235 365.020867 
L 446.915665 365.199802 
L 447.504095 365.374969 
L 448.092525 365.546368 
L 448.680956 365.714 
L 449.269386 365.877865 
L 449.857816 366.037962 
L 450.446246 366.194292 
L 451.034676 366.346854 
L 451.623107 366.495649 
L 452.211537 366.640676 
L 452.799967 366.781935 
L 453.388397 366.919428 
L 453.976827 367.053152 
L 454.565257 367.18311 
L 455.153688 367.309299 
L 455.742118 367.431722 
L 456.330548 367.550376 
L 456.918978 367.665264 
L 457.507408 367.776383 
L 458.095839 367.883736 
L 458.684269 367.98732 
L 459.272699 368.087138 
L 459.861129 368.183188 
L 460.449559 368.27547 
L 461.037989 368.363985 
L 461.62642 368.448732 
L 462.21485 368.529712 
L 462.80328 368.606924 
L 463.39171 368.680369 
L 463.98014 368.750047 
L 464.568571 368.815957 
L 465.157001 368.878099 
L 465.745431 368.936474 
L 466.333861 368.991082 
L 466.922291 369.041922 
L 467.510721 369.088994 
L 468.099152 369.132299 
L 468.687582 369.171837 
L 469.276012 369.207607 
L 469.864442 369.239609 
L 470.452872 369.267844 
L 471.041303 369.292312 
L 471.629733 369.313012 
L 472.218163 369.329944 
L 472.806593 369.34311 
L 473.395023 369.352507 
L 473.983453 369.358137 
L 474.571884 369.36 
L 475.160314 369.358095 
L 475.748744 369.352423 
L 476.337174 369.342983 
L 476.925604 369.329776 
L 477.514035 369.312801 
L 478.102465 369.292059 
L 478.690895 369.267549 
L 479.279325 369.239271 
L 479.867755 369.207227 
L 480.456185 369.171415 
L 481.044616 369.131835 
L 481.633046 369.088488 
L 482.221476 369.041373 
L 482.809906 368.990491 
L 483.398336 368.935841 
L 483.986767 368.877424 
L 484.575197 368.815239 
L 485.163627 368.749287 
L 485.752057 368.679567 
L 486.340487 368.60608 
L 486.928917 368.528826 
L 487.517348 368.447804 
L 488.105778 368.363014 
L 488.694208 368.274457 
L 489.282638 368.182132 
L 489.871068 368.08604 
L 490.459499 367.986181 
L 491.047929 367.882554 
L 491.636359 367.775159 
L 492.224789 367.663997 
L 492.813219 367.549068 
L 493.401649 367.430371 
L 493.99008 367.307906 
L 494.57851 367.181674 
L 495.16694 367.051675 
L 495.75537 366.917908 
L 496.3438 366.780374 
L 496.932231 366.639072 
L 497.520661 366.494002 
L 498.109091 366.345166 
" clip-path="url(#p9412367df5)" style="fill: none; stroke: #d62728; stroke-width: 1.5; stroke-linecap: square"/>
   </g>
   <g id="patch_3">
    <path d="M 72 384.48 
L 72 51.84 
" style="fill: none; stroke: #000000; stroke-width: 0.8; stroke-linejoin: miter; stroke-linecap: square"/>
   </g>
   <g id="patch_4">
    <path d="M 518.4 384.48 
L 518.4 51.84 
" style="fill: none; stroke: #000000; stroke-width: 0.8; stroke-linejoin: miter; stroke-linecap: square"/>
   </g>
   <g id="patch_5">
    <path d="M 72 384.48 
L 518.4 384.48 
" style="fill: none; stroke: #000000; stroke-width: 0.8; stroke-linejoin: miter; stroke-linecap: square"/>
   </g>
   <g id="patch_6">
    <path d="M 72 51.84 
L 518.4 51.84 
" style="fill: none; stroke: #000000; stroke-width: 0.8; stroke-linejoin: miter; stroke-linecap: square"/>
   </g>
   <g id="text_15">
    <!-- IsoFLOP Transformer Curves (on-going) -->
    <g transform="translate(178.089375 45.84) scale(0.12 -0.12)">
     <defs>
      <path id="DejaVuSans-49" d="M 628 4666 
L 1259 4666 
L 1259 0 
L 628 0 
L 628 4666 
z
" transform="scale(0.015625)"/>
      <path id="DejaVuSans-46" d="M 628 4666 
L 3309 4666 
L 3309 4134 
L 1259 4134 
L 1259 2759 
L 3109 2759 
L 3109 2228 
L 1259 2228 
L 1259 0 
L 628 0 
L 628 4666 
z
" transform="scale(0.015625)"/>
      <path id="DejaVuSans-4f" d="M 2522 4238 
Q 1834 4238 1429 3725 
Q 1025 3213 1025 2328 
Q 1025 1447 1429 934 
Q 1834 422 2522 422 
Q 3209 422 3611 934 
Q 4013 1447 4013 2328 
Q 4013 3213 3611 3725 
Q 3209 4238 2522 4238 
z
M 2522 4750 
Q 3503 4750 4090 4092 
Q 4678 3434 4678 2328 
Q 4678 1225 4090 567 
Q 3503 -91 2522 -91 
Q 1538 -91 948 565 
Q 359 1222 359 2328 
Q 359 3434 948 4092 
Q 1538 4750 2522 4750 
z
" transform="scale(0.015625)"/>
      <path id="DejaVuSans-54" d="M -19 4666 
L 3928 4666 
L 3928 4134 
L 2272 4134 
L 2272 0 
L 1638 0 
L 1638 4134 
L -19 4134 
L -19 4666 
z
" transform="scale(0.015625)"/>
      <path id="DejaVuSans-66" d="M 2375 4863 
L 2375 4384 
L 1825 4384 
Q 1516 4384 1395 4259 
Q 1275 4134 1275 3809 
L 1275 3500 
L 2222 3500 
L 2222 3053 
L 1275 3053 
L 1275 0 
L 697 0 
L 697 3053 
L 147 3053 
L 147 3500 
L 697 3500 
L 697 3744 
Q 697 4328 969 4595 
Q 1241 4863 1831 4863 
L 2375 4863 
z
" transform="scale(0.015625)"/>
      <path id="DejaVuSans-43" d="M 4122 4306 
L 4122 3641 
Q 3803 3938 3442 4084 
Q 3081 4231 2675 4231 
Q 1875 4231 1450 3742 
Q 1025 3253 1025 2328 
Q 1025 1406 1450 917 
Q 1875 428 2675 428 
Q 3081 428 3442 575 
Q 3803 722 4122 1019 
L 4122 359 
Q 3791 134 3420 21 
Q 3050 -91 2638 -91 
Q 1578 -91 968 557 
Q 359 1206 359 2328 
Q 359 3453 968 4101 
Q 1578 4750 2638 4750 
Q 3056 4750 3426 4639 
Q 3797 4528 4122 4306 
z
" transform="scale(0.015625)"/>
      <path id="DejaVuSans-75" d="M 544 1381 
L 544 3500 
L 1119 3500 
L 1119 1403 
Q 1119 906 1312 657 
Q 1506 409 1894 409 
Q 2359 409 2629 706 
Q 2900 1003 2900 1516 
L 2900 3500 
L 3475 3500 
L 3475 0 
L 2900 0 
L 2900 538 
Q 2691 219 2414 64 
Q 2138 -91 1772 -91 
Q 1169 -91 856 284 
Q 544 659 544 1381 
z
M 1991 3584 
L 1991 3584 
z
" transform="scale(0.015625)"/>
      <path id="DejaVuSans-76" d="M 191 3500 
L 800 3500 
L 1894 563 
L 2988 3500 
L 3597 3500 
L 2284 0 
L 1503 0 
L 191 3500 
z
" transform="scale(0.015625)"/>
      <path id="DejaVuSans-28" d="M 1984 4856 
Q 1566 4138 1362 3434 
Q 1159 2731 1159 2009 
Q 1159 1288 1364 580 
Q 1569 -128 1984 -844 
L 1484 -844 
Q 1016 -109 783 600 
Q 550 1309 550 2009 
Q 550 2706 781 3412 
Q 1013 4119 1484 4856 
L 1984 4856 
z
" transform="scale(0.015625)"/>
      <path id="DejaVuSans-2d" d="M 313 2009 
L 1997 2009 
L 1997 1497 
L 313 1497 
L 313 2009 
z
" transform="scale(0.015625)"/>
      <path id="DejaVuSans-67" d="M 2906 1791 
Q 2906 2416 2648 2759 
Q 2391 3103 1925 3103 
Q 1463 3103 1205 2759 
Q 947 2416 947 1791 
Q 947 1169 1205 825 
Q 1463 481 1925 481 
Q 2391 481 2648 825 
Q 2906 1169 2906 1791 
z
M 3481 434 
Q 3481 -459 3084 -895 
Q 2688 -1331 1869 -1331 
Q 1566 -1331 1297 -1286 
Q 1028 -1241 775 -1147 
L 775 -588 
Q 1028 -725 1275 -790 
Q 1522 -856 1778 -856 
Q 2344 -856 2625 -561 
Q 2906 -266 2906 331 
L 2906 616 
Q 2728 306 2450 153 
Q 2172 0 1784 0 
Q 1141 0 747 490 
Q 353 981 353 1791 
Q 353 2603 747 3093 
Q 1141 3584 1784 3584 
Q 2172 3584 2450 3431 
Q 2728 3278 2906 2969 
L 2906 3500 
L 3481 3500 
L 3481 434 
z
" transform="scale(0.015625)"/>
      <path id="DejaVuSans-29" d="M 513 4856 
L 1013 4856 
Q 1481 4119 1714 3412 
Q 1947 2706 1947 2009 
Q 1947 1309 1714 600 
Q 1481 -109 1013 -844 
L 513 -844 
Q 928 -128 1133 580 
Q 1338 1288 1338 2009 
Q 1338 2731 1133 3434 
Q 928 4138 513 4856 
z
" transform="scale(0.015625)"/>
     </defs>
     <use xlink:href="#DejaVuSans-49"/>
     <use xlink:href="#DejaVuSans-73" transform="translate(29.492188 0)"/>
     <use xlink:href="#DejaVuSans-6f" transform="translate(81.591797 0)"/>
     <use xlink:href="#DejaVuSans-46" transform="translate(142.773438 0)"/>
     <use xlink:href="#DejaVuSans-4c" transform="translate(200.292969 0)"/>
     <use xlink:href="#DejaVuSans-4f" transform="translate(252.380859 0)"/>
     <use xlink:href="#DejaVuSans-50" transform="translate(331.091797 0)"/>
     <use xlink:href="#DejaVuSans-20" transform="translate(391.394531 0)"/>
     <use xlink:href="#DejaVuSans-54" transform="translate(423.181641 0)"/>
     <use xlink:href="#DejaVuSans-72" transform="translate(469.515625 0)"/>
     <use xlink:href="#DejaVuSans-61" transform="translate(510.628906 0)"/>
     <use xlink:href="#DejaVuSans-6e" transform="translate(571.908203 0)"/>
     <use xlink:href="#DejaVuSans-73" transform="translate(635.287109 0)"/>
     <use xlink:href="#DejaVuSans-66" transform="translate(687.386719 0)"/>
     <use xlink:href="#DejaVuSans-6f" transform="translate(722.591797 0)"/>
     <use xlink:href="#DejaVuSans-72" transform="translate(783.773438 0)"/>
     <use xlink:href="#DejaVuSans-6d" transform="translate(823.136719 0)"/>
     <use xlink:href="#DejaVuSans-65" transform="translate(920.548828 0)"/>
     <use xlink:href="#DejaVuSans-72" transform="translate(982.072266 0)"/>
     <use xlink:href="#DejaVuSans-20" transform="translate(1023.185547 0)"/>
     <use xlink:href="#DejaVuSans-43" transform="translate(1054.972656 0)"/>
     <use xlink:href="#DejaVuSans-75" transform="translate(1124.796875 0)"/>
     <use xlink:href="#DejaVuSans-72" transform="translate(1188.175781 0)"/>
     <use xlink:href="#DejaVuSans-76" transform="translate(1229.289062 0)"/>
     <use xlink:href="#DejaVuSans-65" transform="translate(1288.46875 0)"/>
     <use xlink:href="#DejaVuSans-73" transform="translate(1349.992188 0)"/>
     <use xlink:href="#DejaVuSans-20" transform="translate(1402.091797 0)"/>
     <use xlink:href="#DejaVuSans-28" transform="translate(1433.878906 0)"/>
     <use xlink:href="#DejaVuSans-6f" transform="translate(1472.892578 0)"/>
     <use xlink:href="#DejaVuSans-6e" transform="translate(1534.074219 0)"/>
     <use xlink:href="#DejaVuSans-2d" transform="translate(1597.453125 0)"/>
     <use xlink:href="#DejaVuSans-67" transform="translate(1633.537109 0)"/>
     <use xlink:href="#DejaVuSans-6f" transform="translate(1697.013672 0)"/>
     <use xlink:href="#DejaVuSans-69" transform="translate(1758.195312 0)"/>
     <use xlink:href="#DejaVuSans-6e" transform="translate(1785.978516 0)"/>
     <use xlink:href="#DejaVuSans-67" transform="translate(1849.357422 0)"/>
     <use xlink:href="#DejaVuSans-29" transform="translate(1912.833984 0)"/>
    </g>
   </g>
   <g id="legend_1">
    <g id="patch_7">
     <path d="M 79 379.48 
L 182.057813 379.48 
Q 184.057813 379.48 184.057813 377.48 
L 184.057813 305.089375 
Q 184.057813 303.089375 182.057813 303.089375 
L 79 303.089375 
Q 77 303.089375 77 305.089375 
L 77 377.48 
Q 77 379.48 79 379.48 
z
" style="fill: #ffffff; opacity: 0.8; stroke: #cccccc; stroke-linejoin: miter"/>
    </g>
    <g id="text_16">
     <!-- Total Training FLOPs -->
     <g transform="translate(81 314.687813) scale(0.1 -0.1)">
      <use xlink:href="#DejaVuSans-54"/>
      <use xlink:href="#DejaVuSans-6f" transform="translate(44.083984 0)"/>
      <use xlink:href="#DejaVuSans-74" transform="translate(105.265625 0)"/>
      <use xlink:href="#DejaVuSans-61" transform="translate(144.474609 0)"/>
      <use xlink:href="#DejaVuSans-6c" transform="translate(205.753906 0)"/>
      <use xlink:href="#DejaVuSans-20" transform="translate(233.537109 0)"/>
      <use xlink:href="#DejaVuSans-54" transform="translate(265.324219 0)"/>
      <use xlink:href="#DejaVuSans-72" transform="translate(311.658203 0)"/>
      <use xlink:href="#DejaVuSans-61" transform="translate(352.771484 0)"/>
      <use xlink:href="#DejaVuSans-69" transform="translate(414.050781 0)"/>
      <use xlink:href="#DejaVuSans-6e" transform="translate(441.833984 0)"/>
      <use xlink:href="#DejaVuSans-69" transform="translate(505.212891 0)"/>
      <use xlink:href="#DejaVuSans-6e" transform="translate(532.996094 0)"/>
      <use xlink:href="#DejaVuSans-67" transform="translate(596.375 0)"/>
      <use xlink:href="#DejaVuSans-20" transform="translate(659.851562 0)"/>
      <use xlink:href="#DejaVuSans-46" transform="translate(691.638672 0)"/>
      <use xlink:href="#DejaVuSans-4c" transform="translate(749.158203 0)"/>
      <use xlink:href="#DejaVuSans-4f" transform="translate(801.246094 0)"/>
      <use xlink:href="#DejaVuSans-50" transform="translate(879.957031 0)"/>
      <use xlink:href="#DejaVuSans-73" transform="translate(938.509766 0)"/>
     </g>
    </g>
    <g id="line2d_33">
     <defs>
      <path id="m668f6e7aeb" d="M 0 3 
C 0.795609 3 1.55874 2.683901 2.12132 2.12132 
C 2.683901 1.55874 3 0.795609 3 0 
C 3 -0.795609 2.683901 -1.55874 2.12132 -2.12132 
C 1.55874 -2.683901 0.795609 -3 0 -3 
C -0.795609 -3 -1.55874 -2.683901 -2.12132 -2.12132 
C -2.683901 -1.55874 -3 -0.795609 -3 0 
C -3 0.795609 -2.683901 1.55874 -2.12132 2.12132 
C -1.55874 2.683901 -0.795609 3 0 3 
z
" style="stroke: #ffffff; stroke-width: 0.48"/>
     </defs>
     <g>
      <use xlink:href="#m668f6e7aeb" x="92.223438" y="325.865937" style="fill: #1f77b4; stroke: #ffffff; stroke-width: 0.48"/>
     </g>
    </g>
    <g id="text_17">
     <!-- 1.917e+16 -->
     <g transform="translate(110.223438 329.365937) scale(0.1 -0.1)">
      <defs>
       <path id="DejaVuSans-39" d="M 703 97 
L 703 672 
Q 941 559 1184 500 
Q 1428 441 1663 441 
Q 2288 441 2617 861 
Q 2947 1281 2994 2138 
Q 2813 1869 2534 1725 
Q 2256 1581 1919 1581 
Q 1219 1581 811 2004 
Q 403 2428 403 3163 
Q 403 3881 828 4315 
Q 1253 4750 1959 4750 
Q 2769 4750 3195 4129 
Q 3622 3509 3622 2328 
Q 3622 1225 3098 567 
Q 2575 -91 1691 -91 
Q 1453 -91 1209 -44 
Q 966 3 703 97 
z
M 1959 2075 
Q 2384 2075 2632 2365 
Q 2881 2656 2881 3163 
Q 2881 3666 2632 3958 
Q 2384 4250 1959 4250 
Q 1534 4250 1286 3958 
Q 1038 3666 1038 3163 
Q 1038 2656 1286 2365 
Q 1534 2075 1959 2075 
z
" transform="scale(0.015625)"/>
       <path id="DejaVuSans-2b" d="M 2944 4013 
L 2944 2272 
L 4684 2272 
L 4684 1741 
L 2944 1741 
L 2944 0 
L 2419 0 
L 2419 1741 
L 678 1741 
L 678 2272 
L 2419 2272 
L 2419 4013 
L 2944 4013 
z
" transform="scale(0.015625)"/>
      </defs>
      <use xlink:href="#DejaVuSans-31"/>
      <use xlink:href="#DejaVuSans-2e" transform="translate(63.623047 0)"/>
      <use xlink:href="#DejaVuSans-39" transform="translate(95.410156 0)"/>
      <use xlink:href="#DejaVuSans-31" transform="translate(159.033203 0)"/>
      <use xlink:href="#DejaVuSans-37" transform="translate(222.65625 0)"/>
      <use xlink:href="#DejaVuSans-65" transform="translate(286.279297 0)"/>
      <use xlink:href="#DejaVuSans-2b" transform="translate(347.802734 0)"/>
      <use xlink:href="#DejaVuSans-31" transform="translate(431.591797 0)"/>
      <use xlink:href="#DejaVuSans-36" transform="translate(495.214844 0)"/>
     </g>
    </g>
    <g id="line2d_34">
     <defs>
      <path id="med7e48976f" d="M 0 3 
C 0.795609 3 1.55874 2.683901 2.12132 2.12132 
C 2.683901 1.55874 3 0.795609 3 0 
C 3 -0.795609 2.683901 -1.55874 2.12132 -2.12132 
C 1.55874 -2.683901 0.795609 -3 0 -3 
C -0.795609 -3 -1.55874 -2.683901 -2.12132 -2.12132 
C -2.683901 -1.55874 -3 -0.795609 -3 0 
C -3 0.795609 -2.683901 1.55874 -2.12132 2.12132 
C -1.55874 2.683901 -0.795609 3 0 3 
z
" style="stroke: #ffffff; stroke-width: 0.48"/>
     </defs>
     <g>
      <use xlink:href="#med7e48976f" x="92.223438" y="340.544062" style="fill: #ff7f0e; stroke: #ffffff; stroke-width: 0.48"/>
     </g>
    </g>
    <g id="text_18">
     <!-- 7.668e+16 -->
     <g transform="translate(110.223438 344.044062) scale(0.1 -0.1)">
      <use xlink:href="#DejaVuSans-37"/>
      <use xlink:href="#DejaVuSans-2e" transform="translate(63.623047 0)"/>
      <use xlink:href="#DejaVuSans-36" transform="translate(95.410156 0)"/>
      <use xlink:href="#DejaVuSans-36" transform="translate(159.033203 0)"/>
      <use xlink:href="#DejaVuSans-38" transform="translate(222.65625 0)"/>
      <use xlink:href="#DejaVuSans-65" transform="translate(286.279297 0)"/>
      <use xlink:href="#DejaVuSans-2b" transform="translate(347.802734 0)"/>
      <use xlink:href="#DejaVuSans-31" transform="translate(431.591797 0)"/>
      <use xlink:href="#DejaVuSans-36" transform="translate(495.214844 0)"/>
     </g>
    </g>
    <g id="line2d_35">
     <defs>
      <path id="md2fc503e7e" d="M 0 3 
C 0.795609 3 1.55874 2.683901 2.12132 2.12132 
C 2.683901 1.55874 3 0.795609 3 0 
C 3 -0.795609 2.683901 -1.55874 2.12132 -2.12132 
C 1.55874 -2.683901 0.795609 -3 0 -3 
C -0.795609 -3 -1.55874 -2.683901 -2.12132 -2.12132 
C -2.683901 -1.55874 -3 -0.795609 -3 0 
C -3 0.795609 -2.683901 1.55874 -2.12132 2.12132 
C -1.55874 2.683901 -0.795609 3 0 3 
z
" style="stroke: #ffffff; stroke-width: 0.48"/>
     </defs>
     <g>
      <use xlink:href="#md2fc503e7e" x="92.223438" y="355.222188" style="fill: #2ca02c; stroke: #ffffff; stroke-width: 0.48"/>
     </g>
    </g>
    <g id="text_19">
     <!-- 3.067e+17 -->
     <g transform="translate(110.223438 358.722188) scale(0.1 -0.1)">
      <use xlink:href="#DejaVuSans-33"/>
      <use xlink:href="#DejaVuSans-2e" transform="translate(63.623047 0)"/>
      <use xlink:href="#DejaVuSans-30" transform="translate(95.410156 0)"/>
      <use xlink:href="#DejaVuSans-36" transform="translate(159.033203 0)"/>
      <use xlink:href="#DejaVuSans-37" transform="translate(222.65625 0)"/>
      <use xlink:href="#DejaVuSans-65" transform="translate(286.279297 0)"/>
      <use xlink:href="#DejaVuSans-2b" transform="translate(347.802734 0)"/>
      <use xlink:href="#DejaVuSans-31" transform="translate(431.591797 0)"/>
      <use xlink:href="#DejaVuSans-37" transform="translate(495.214844 0)"/>
     </g>
    </g>
    <g id="line2d_36">
     <defs>
      <path id="m4c56a2378f" d="M 0 3 
C 0.795609 3 1.55874 2.683901 2.12132 2.12132 
C 2.683901 1.55874 3 0.795609 3 0 
C 3 -0.795609 2.683901 -1.55874 2.12132 -2.12132 
C 1.55874 -2.683901 0.795609 -3 0 -3 
C -0.795609 -3 -1.55874 -2.683901 -2.12132 -2.12132 
C -2.683901 -1.55874 -3 -0.795609 -3 0 
C -3 0.795609 -2.683901 1.55874 -2.12132 2.12132 
C -1.55874 2.683901 -0.795609 3 0 3 
z
" style="stroke: #ffffff; stroke-width: 0.48"/>
     </defs>
     <g>
      <use xlink:href="#m4c56a2378f" x="92.223438" y="369.900312" style="fill: #d62728; stroke: #ffffff; stroke-width: 0.48"/>
     </g>
    </g>
    <g id="text_20">
     <!-- 1.22688e+18 -->
     <g transform="translate(110.223438 373.400312) scale(0.1 -0.1)">
      <use xlink:href="#DejaVuSans-31"/>
      <use xlink:href="#DejaVuSans-2e" transform="translate(63.623047 0)"/>
      <use xlink:href="#DejaVuSans-32" transform="translate(95.410156 0)"/>
      <use xlink:href="#DejaVuSans-32" transform="translate(159.033203 0)"/>
      <use xlink:href="#DejaVuSans-36" transform="translate(222.65625 0)"/>
      <use xlink:href="#DejaVuSans-38" transform="translate(286.279297 0)"/>
      <use xlink:href="#DejaVuSans-38" transform="translate(349.902344 0)"/>
      <use xlink:href="#DejaVuSans-65" transform="translate(413.525391 0)"/>
      <use xlink:href="#DejaVuSans-2b" transform="translate(475.048828 0)"/>
      <use xlink:href="#DejaVuSans-31" transform="translate(558.837891 0)"/>
      <use xlink:href="#DejaVuSans-38" transform="translate(622.460938 0)"/>
     </g>
    </g>
   </g>
   <g id="legend_2">
    <g id="patch_8">
     <path d="M 385.475 89.19625 
L 511.4 89.19625 
Q 513.4 89.19625 513.4 87.19625 
L 513.4 58.84 
Q 513.4 56.84 511.4 56.84 
L 385.475 56.84 
Q 383.475 56.84 383.475 58.84 
L 383.475 87.19625 
Q 383.475 89.19625 385.475 89.19625 
z
" style="fill: #ffffff; opacity: 0.8; stroke: #cccccc; stroke-linejoin: miter"/>
    </g>
    <g id="line2d_37">
     <path d="M 387.475 64.938437 
L 397.475 64.938437 
L 407.475 64.938437 
" style="fill: none; stroke: #ffffff; stroke-width: 1.5; stroke-linecap: square"/>
     <defs>
      <path id="mc42b42495c" d="M 0 5 
C 1.326016 5 2.597899 4.473168 3.535534 3.535534 
C 4.473168 2.597899 5 1.326016 5 0 
C 5 -1.326016 4.473168 -2.597899 3.535534 -3.535534 
C 2.597899 -4.473168 1.326016 -5 0 -5 
C -1.326016 -5 -2.597899 -4.473168 -3.535534 -3.535534 
C -4.473168 -2.597899 -5 -1.326016 -5 0 
C -5 1.326016 -4.473168 2.597899 -3.535534 3.535534 
C -2.597899 4.473168 -1.326016 5 0 5 
z
" style="stroke: #ffffff"/>
     </defs>
     <g>
      <use xlink:href="#mc42b42495c" x="397.475" y="64.938437" style="stroke: #ffffff"/>
     </g>
    </g>
    <g id="text_21">
     <!-- Experiment Data -->
     <g transform="translate(415.475 68.438437) scale(0.1 -0.1)">
      <defs>
       <path id="DejaVuSans-45" d="M 628 4666 
L 3578 4666 
L 3578 4134 
L 1259 4134 
L 1259 2753 
L 3481 2753 
L 3481 2222 
L 1259 2222 
L 1259 531 
L 3634 531 
L 3634 0 
L 628 0 
L 628 4666 
z
" transform="scale(0.015625)"/>
       <path id="DejaVuSans-78" d="M 3513 3500 
L 2247 1797 
L 3578 0 
L 2900 0 
L 1881 1375 
L 863 0 
L 184 0 
L 1544 1831 
L 300 3500 
L 978 3500 
L 1906 2253 
L 2834 3500 
L 3513 3500 
z
" transform="scale(0.015625)"/>
       <path id="DejaVuSans-70" d="M 1159 525 
L 1159 -1331 
L 581 -1331 
L 581 3500 
L 1159 3500 
L 1159 2969 
Q 1341 3281 1617 3432 
Q 1894 3584 2278 3584 
Q 2916 3584 3314 3078 
Q 3713 2572 3713 1747 
Q 3713 922 3314 415 
Q 2916 -91 2278 -91 
Q 1894 -91 1617 61 
Q 1341 213 1159 525 
z
M 3116 1747 
Q 3116 2381 2855 2742 
Q 2594 3103 2138 3103 
Q 1681 3103 1420 2742 
Q 1159 2381 1159 1747 
Q 1159 1113 1420 752 
Q 1681 391 2138 391 
Q 2594 391 2855 752 
Q 3116 1113 3116 1747 
z
" transform="scale(0.015625)"/>
       <path id="DejaVuSans-44" d="M 1259 4147 
L 1259 519 
L 2022 519 
Q 2988 519 3436 956 
Q 3884 1394 3884 2338 
Q 3884 3275 3436 3711 
Q 2988 4147 2022 4147 
L 1259 4147 
z
M 628 4666 
L 1925 4666 
Q 3281 4666 3915 4102 
Q 4550 3538 4550 2338 
Q 4550 1131 3912 565 
Q 3275 0 1925 0 
L 628 0 
L 628 4666 
z
" transform="scale(0.015625)"/>
      </defs>
      <use xlink:href="#DejaVuSans-45"/>
      <use xlink:href="#DejaVuSans-78" transform="translate(63.183594 0)"/>
      <use xlink:href="#DejaVuSans-70" transform="translate(122.363281 0)"/>
      <use xlink:href="#DejaVuSans-65" transform="translate(185.839844 0)"/>
      <use xlink:href="#DejaVuSans-72" transform="translate(247.363281 0)"/>
      <use xlink:href="#DejaVuSans-69" transform="translate(288.476562 0)"/>
      <use xlink:href="#DejaVuSans-6d" transform="translate(316.259766 0)"/>
      <use xlink:href="#DejaVuSans-65" transform="translate(413.671875 0)"/>
      <use xlink:href="#DejaVuSans-6e" transform="translate(475.195312 0)"/>
      <use xlink:href="#DejaVuSans-74" transform="translate(538.574219 0)"/>
      <use xlink:href="#DejaVuSans-20" transform="translate(577.783203 0)"/>
      <use xlink:href="#DejaVuSans-44" transform="translate(609.570312 0)"/>
      <use xlink:href="#DejaVuSans-61" transform="translate(686.572266 0)"/>
      <use xlink:href="#DejaVuSans-74" transform="translate(747.851562 0)"/>
      <use xlink:href="#DejaVuSans-61" transform="translate(787.060547 0)"/>
     </g>
    </g>
    <g id="line2d_38">
     <path d="M 387.475 79.616562 
L 397.475 79.616562 
L 407.475 79.616562 
" style="fill: none; stroke: #ffffff; stroke-width: 1.5; stroke-linecap: square"/>
     <defs>
      <path id="m4f3ccfd67a" d="M -5 5 
L 5 -5 
M -5 -5 
L 5 5 
" style="stroke: #000000"/>
     </defs>
     <g>
      <use xlink:href="#m4f3ccfd67a" x="397.475" y="79.616562" style="fill: #ffffff; stroke: #000000"/>
     </g>
    </g>
    <g id="text_22">
     <!-- Curve Fit Minimum -->
     <g transform="translate(415.475 83.116562) scale(0.1 -0.1)">
      <defs>
       <path id="DejaVuSans-4d" d="M 628 4666 
L 1569 4666 
L 2759 1491 
L 3956 4666 
L 4897 4666 
L 4897 0 
L 4281 0 
L 4281 4097 
L 3078 897 
L 2444 897 
L 1241 4097 
L 1241 0 
L 628 0 
L 628 4666 
z
" transform="scale(0.015625)"/>
      </defs>
      <use xlink:href="#DejaVuSans-43"/>
      <use xlink:href="#DejaVuSans-75" transform="translate(69.824219 0)"/>
      <use xlink:href="#DejaVuSans-72" transform="translate(133.203125 0)"/>
      <use xlink:href="#DejaVuSans-76" transform="translate(174.316406 0)"/>
      <use xlink:href="#DejaVuSans-65" transform="translate(233.496094 0)"/>
      <use xlink:href="#DejaVuSans-20" transform="translate(295.019531 0)"/>
      <use xlink:href="#DejaVuSans-46" transform="translate(326.806641 0)"/>
      <use xlink:href="#DejaVuSans-69" transform="translate(377.076172 0)"/>
      <use xlink:href="#DejaVuSans-74" transform="translate(404.859375 0)"/>
      <use xlink:href="#DejaVuSans-20" transform="translate(444.068359 0)"/>
      <use xlink:href="#DejaVuSans-4d" transform="translate(475.855469 0)"/>
      <use xlink:href="#DejaVuSans-69" transform="translate(562.134766 0)"/>
      <use xlink:href="#DejaVuSans-6e" transform="translate(589.917969 0)"/>
      <use xlink:href="#DejaVuSans-69" transform="translate(653.296875 0)"/>
      <use xlink:href="#DejaVuSans-6d" transform="translate(681.080078 0)"/>
      <use xlink:href="#DejaVuSans-75" transform="translate(778.492188 0)"/>
      <use xlink:href="#DejaVuSans-6d" transform="translate(841.871094 0)"/>
     </g>
    </g>
   </g>
  </g>
 </g>
 <defs>
  <clipPath id="p9412367df5">
   <rect x="72" y="51.84" width="446.4" height="332.64"/>
  </clipPath>
 </defs>
</svg>
